<?xml version="1.0" encoding="UTF-8"?>
<!DOCTYPE svg PUBLIC "-//W3C//DTD SVG 1.1//EN"
    "http://www.w3.org/Graphics/SVG/1.1/DTD/svg11.dtd"><svg viewBox="0.0 0.0 400.0 460.5903080457072" xmlns:xlink="http://www.w3.org/1999/xlink" xmlns="http://www.w3.org/2000/svg" width="400.0000" stroke="rgb(0,0,0)" font-size="1" stroke-opacity="1" height="460.5903" version="1.1"><defs></defs><g stroke-width="1.716909424370583" stroke-linejoin="miter" fill-opacity="0.0" stroke="rgb(0,0,0)" stroke-opacity="1.0" fill="rgb(0,0,0)" stroke-linecap="butt" stroke-miterlimit="10.0"><path d="M 41.9742,-13.1319 Z"/></g><g stroke-width="1.716909424370583" stroke-linejoin="miter" fill-opacity="0.0" stroke="rgb(0,0,0)" stroke-opacity="1.0" fill="rgb(0,0,0)" stroke-linecap="butt" stroke-miterlimit="10.0"><path d="M 379.0862,36.4776 l 0.0000,-24.3184 l -21.0603,-12.1592 l -21.0603,12.1592 l -0.0000,24.3184 l 21.0603,12.1592 Z"/></g><g stroke-width="1.716909424370583" stroke-linejoin="miter" fill-opacity="0.0" stroke="rgb(0,0,0)" stroke-opacity="1.0" fill="rgb(0,0,0)" stroke-linecap="butt" stroke-miterlimit="10.0"><path d="M 336.9655,36.4776 l 0.0000,-24.3184 l -21.0603,-12.1592 l -21.0603,12.1592 l -0.0000,24.3184 l 21.0603,12.1592 Z"/></g><g stroke-width="1.716909424370583" stroke-linejoin="miter" fill-opacity="0.0" stroke="rgb(0,0,0)" stroke-opacity="1.0" fill="rgb(0,0,0)" stroke-linecap="butt" stroke-miterlimit="10.0"><path d="M 294.8448,36.4776 l 0.0000,-24.3184 l -21.0603,-12.1592 l -21.0603,12.1592 l -0.0000,24.3184 l 21.0603,12.1592 Z"/></g><g stroke-width="1.716909424370583" stroke-linejoin="miter" fill-opacity="0.0" stroke="rgb(0,0,0)" stroke-opacity="1.0" fill="rgb(0,0,0)" stroke-linecap="butt" stroke-miterlimit="10.0"><path d="M 252.7241,36.4776 l 0.0000,-24.3184 l -21.0603,-12.1592 l -21.0603,12.1592 l -0.0000,24.3184 l 21.0603,12.1592 Z"/></g><g stroke-width="1.716909424370583" stroke-linejoin="miter" fill-opacity="0.0" stroke="rgb(0,0,0)" stroke-opacity="1.0" fill="rgb(0,0,0)" stroke-linecap="butt" stroke-miterlimit="10.0"><path d="M 210.6034,36.4776 l 0.0000,-24.3184 l -21.0603,-12.1592 l -21.0603,12.1592 l -0.0000,24.3184 l 21.0603,12.1592 Z"/></g><g stroke-width="1.716909424370583" stroke-linejoin="miter" fill-opacity="0.0" stroke="rgb(0,0,0)" stroke-opacity="1.0" fill="rgb(0,0,0)" stroke-linecap="butt" stroke-miterlimit="10.0"><path d="M 168.4827,36.4776 l 0.0000,-24.3184 l -21.0603,-12.1592 l -21.0603,12.1592 l -0.0000,24.3184 l 21.0603,12.1592 Z"/></g><g stroke-width="1.716909424370583" stroke-linejoin="miter" fill-opacity="0.0" stroke="rgb(0,0,0)" stroke-opacity="1.0" fill="rgb(0,0,0)" stroke-linecap="butt" stroke-miterlimit="10.0"><path d="M 126.3621,36.4776 l 0.0000,-24.3184 l -21.0603,-12.1592 l -21.0603,12.1592 l -0.0000,24.3184 l 21.0603,12.1592 Z"/></g><g stroke-width="1.716909424370583" stroke-linejoin="miter" fill-opacity="0.0" stroke="rgb(0,0,0)" stroke-opacity="1.0" fill="rgb(0,0,0)" stroke-linecap="butt" stroke-miterlimit="10.0"><path d="M 84.2414,36.4776 l 0.0000,-24.3184 l -21.0603,-12.1592 l -21.0603,12.1592 l -0.0000,24.3184 l 21.0603,12.1592 Z"/></g><g stroke-width="1.716909424370583" stroke-linejoin="miter" fill-opacity="0.0" stroke="rgb(0,0,0)" stroke-opacity="1.0" fill="rgb(0,0,0)" stroke-linecap="butt" stroke-miterlimit="10.0"><path d="M 42.1207,36.4776 l 0.0000,-24.3184 l -21.0603,-12.1592 l -21.0603,12.1592 l -0.0000,24.3184 l 21.0603,12.1592 Z"/></g><g stroke-width="1.716909424370583" stroke-linejoin="miter" fill-opacity="0.0" stroke="rgb(0,0,0)" stroke-opacity="1.0" fill="rgb(0,0,0)" stroke-linecap="butt" stroke-miterlimit="10.0"><path d="M 400.0000,73.9279 l 0.0000,-24.3184 l -21.0603,-12.1592 l -21.0603,12.1592 l -0.0000,24.3184 l 21.0603,12.1592 Z"/></g><g stroke-width="1.716909424370583" stroke-linejoin="miter" fill-opacity="0.0" stroke="rgb(0,0,0)" stroke-opacity="1.0" fill="rgb(0,0,0)" stroke-linecap="butt" stroke-miterlimit="10.0"><path d="M 357.8793,73.9279 l 0.0000,-24.3184 l -21.0603,-12.1592 l -21.0603,12.1592 l -0.0000,24.3184 l 21.0603,12.1592 Z"/></g><g stroke-width="1.716909424370583" stroke-linejoin="miter" fill-opacity="0.0" stroke="rgb(0,0,0)" stroke-opacity="1.0" fill="rgb(0,0,0)" stroke-linecap="butt" stroke-miterlimit="10.0"><path d="M 315.7586,73.9279 l 0.0000,-24.3184 l -21.0603,-12.1592 l -21.0603,12.1592 l -0.0000,24.3184 l 21.0603,12.1592 Z"/></g><g stroke-width="1.716909424370583" stroke-linejoin="miter" fill-opacity="0.0" stroke="rgb(0,0,0)" stroke-opacity="1.0" fill="rgb(0,0,0)" stroke-linecap="butt" stroke-miterlimit="10.0"><path d="M 273.6379,73.9279 l 0.0000,-24.3184 l -21.0603,-12.1592 l -21.0603,12.1592 l -0.0000,24.3184 l 21.0603,12.1592 Z"/></g><g stroke-width="1.716909424370583" stroke-linejoin="miter" fill-opacity="0.0" stroke="rgb(0,0,0)" stroke-opacity="1.0" fill="rgb(0,0,0)" stroke-linecap="butt" stroke-miterlimit="10.0"><path d="M 231.5173,73.9279 l 0.0000,-24.3184 l -21.0603,-12.1592 l -21.0603,12.1592 l -0.0000,24.3184 l 21.0603,12.1592 Z"/></g><g stroke-width="1.716909424370583" stroke-linejoin="miter" fill-opacity="0.0" stroke="rgb(0,0,0)" stroke-opacity="1.0" fill="rgb(0,0,0)" stroke-linecap="butt" stroke-miterlimit="10.0"><path d="M 189.3966,73.9279 l 0.0000,-24.3184 l -21.0603,-12.1592 l -21.0603,12.1592 l -0.0000,24.3184 l 21.0603,12.1592 Z"/></g><g stroke-width="1.716909424370583" stroke-linejoin="miter" fill-opacity="0.0" stroke="rgb(0,0,0)" stroke-opacity="1.0" fill="rgb(0,0,0)" stroke-linecap="butt" stroke-miterlimit="10.0"><path d="M 147.2759,73.9279 l 0.0000,-24.3184 l -21.0603,-12.1592 l -21.0603,12.1592 l -0.0000,24.3184 l 21.0603,12.1592 Z"/></g><g stroke-width="1.716909424370583" stroke-linejoin="miter" fill-opacity="0.0" stroke="rgb(0,0,0)" stroke-opacity="1.0" fill="rgb(0,0,0)" stroke-linecap="butt" stroke-miterlimit="10.0"><path d="M 105.1552,73.9279 l 0.0000,-24.3184 l -21.0603,-12.1592 l -21.0603,12.1592 l -0.0000,24.3184 l 21.0603,12.1592 Z"/></g><g stroke-width="1.716909424370583" stroke-linejoin="miter" fill-opacity="0.0" stroke="rgb(0,0,0)" stroke-opacity="1.0" fill="rgb(0,0,0)" stroke-linecap="butt" stroke-miterlimit="10.0"><path d="M 63.0345,73.9279 l 0.0000,-24.3184 l -21.0603,-12.1592 l -21.0603,12.1592 l -0.0000,24.3184 l 21.0603,12.1592 Z"/></g><g stroke-width="1.716909424370583" stroke-linejoin="miter" fill-opacity="0.0" stroke="rgb(0,0,0)" stroke-opacity="1.0" fill="rgb(0,0,0)" stroke-linecap="butt" stroke-miterlimit="10.0"><path d="M 379.0862,111.3782 l 0.0000,-24.3184 l -21.0603,-12.1592 l -21.0603,12.1592 l -0.0000,24.3184 l 21.0603,12.1592 Z"/></g><g stroke-width="1.716909424370583" stroke-linejoin="miter" fill-opacity="0.0" stroke="rgb(0,0,0)" stroke-opacity="1.0" fill="rgb(0,0,0)" stroke-linecap="butt" stroke-miterlimit="10.0"><path d="M 336.9655,111.3782 l 0.0000,-24.3184 l -21.0603,-12.1592 l -21.0603,12.1592 l -0.0000,24.3184 l 21.0603,12.1592 Z"/></g><g stroke-width="1.716909424370583" stroke-linejoin="miter" fill-opacity="0.0" stroke="rgb(0,0,0)" stroke-opacity="1.0" fill="rgb(0,0,0)" stroke-linecap="butt" stroke-miterlimit="10.0"><path d="M 294.8448,111.3782 l 0.0000,-24.3184 l -21.0603,-12.1592 l -21.0603,12.1592 l -0.0000,24.3184 l 21.0603,12.1592 Z"/></g><g stroke-width="1.716909424370583" stroke-linejoin="miter" fill-opacity="0.0" stroke="rgb(0,0,0)" stroke-opacity="1.0" fill="rgb(0,0,0)" stroke-linecap="butt" stroke-miterlimit="10.0"><path d="M 252.7241,111.3782 l 0.0000,-24.3184 l -21.0603,-12.1592 l -21.0603,12.1592 l -0.0000,24.3184 l 21.0603,12.1592 Z"/></g><g stroke-width="1.716909424370583" stroke-linejoin="miter" fill-opacity="0.0" stroke="rgb(0,0,0)" stroke-opacity="1.0" fill="rgb(0,0,0)" stroke-linecap="butt" stroke-miterlimit="10.0"><path d="M 210.6034,111.3782 l 0.0000,-24.3184 l -21.0603,-12.1592 l -21.0603,12.1592 l -0.0000,24.3184 l 21.0603,12.1592 Z"/></g><g stroke-width="1.716909424370583" stroke-linejoin="miter" fill-opacity="0.0" stroke="rgb(0,0,0)" stroke-opacity="1.0" fill="rgb(0,0,0)" stroke-linecap="butt" stroke-miterlimit="10.0"><path d="M 168.4827,111.3782 l 0.0000,-24.3184 l -21.0603,-12.1592 l -21.0603,12.1592 l -0.0000,24.3184 l 21.0603,12.1592 Z"/></g><g stroke-width="1.716909424370583" stroke-linejoin="miter" fill-opacity="0.0" stroke="rgb(0,0,0)" stroke-opacity="1.0" fill="rgb(0,0,0)" stroke-linecap="butt" stroke-miterlimit="10.0"><path d="M 126.3621,111.3782 l 0.0000,-24.3184 l -21.0603,-12.1592 l -21.0603,12.1592 l -0.0000,24.3184 l 21.0603,12.1592 Z"/></g><g stroke-width="1.716909424370583" stroke-linejoin="miter" fill-opacity="0.0" stroke="rgb(0,0,0)" stroke-opacity="1.0" fill="rgb(0,0,0)" stroke-linecap="butt" stroke-miterlimit="10.0"><path d="M 84.2414,111.3782 l 0.0000,-24.3184 l -21.0603,-12.1592 l -21.0603,12.1592 l -0.0000,24.3184 l 21.0603,12.1592 Z"/></g><g stroke-width="1.716909424370583" stroke-linejoin="miter" fill-opacity="0.0" stroke="rgb(0,0,0)" stroke-opacity="1.0" fill="rgb(0,0,0)" stroke-linecap="butt" stroke-miterlimit="10.0"><path d="M 42.1207,111.3782 l 0.0000,-24.3184 l -21.0603,-12.1592 l -21.0603,12.1592 l -0.0000,24.3184 l 21.0603,12.1592 Z"/></g><g stroke-width="1.716909424370583" stroke-linejoin="miter" fill-opacity="0.0" stroke="rgb(0,0,0)" stroke-opacity="1.0" fill="rgb(0,0,0)" stroke-linecap="butt" stroke-miterlimit="10.0"><path d="M 400.0000,148.8285 l 0.0000,-24.3184 l -21.0603,-12.1592 l -21.0603,12.1592 l -0.0000,24.3184 l 21.0603,12.1592 Z"/></g><g stroke-width="1.716909424370583" stroke-linejoin="miter" fill-opacity="0.0" stroke="rgb(0,0,0)" stroke-opacity="1.0" fill="rgb(0,0,0)" stroke-linecap="butt" stroke-miterlimit="10.0"><path d="M 357.8793,148.8285 l 0.0000,-24.3184 l -21.0603,-12.1592 l -21.0603,12.1592 l -0.0000,24.3184 l 21.0603,12.1592 Z"/></g><g stroke-width="1.716909424370583" stroke-linejoin="miter" fill-opacity="0.0" stroke="rgb(0,0,0)" stroke-opacity="1.0" fill="rgb(0,0,0)" stroke-linecap="butt" stroke-miterlimit="10.0"><path d="M 315.7586,148.8285 l 0.0000,-24.3184 l -21.0603,-12.1592 l -21.0603,12.1592 l -0.0000,24.3184 l 21.0603,12.1592 Z"/></g><g stroke-width="1.716909424370583" stroke-linejoin="miter" fill-opacity="0.0" stroke="rgb(0,0,0)" stroke-opacity="1.0" fill="rgb(0,0,0)" stroke-linecap="butt" stroke-miterlimit="10.0"><path d="M 273.6379,148.8285 l 0.0000,-24.3184 l -21.0603,-12.1592 l -21.0603,12.1592 l -0.0000,24.3184 l 21.0603,12.1592 Z"/></g><g stroke-width="1.716909424370583" stroke-linejoin="miter" fill-opacity="0.0" stroke="rgb(0,0,0)" stroke-opacity="1.0" fill="rgb(0,0,0)" stroke-linecap="butt" stroke-miterlimit="10.0"><path d="M 231.5173,148.8285 l 0.0000,-24.3184 l -21.0603,-12.1592 l -21.0603,12.1592 l -0.0000,24.3184 l 21.0603,12.1592 Z"/></g><g stroke-width="1.716909424370583" stroke-linejoin="miter" fill-opacity="0.0" stroke="rgb(0,0,0)" stroke-opacity="1.0" fill="rgb(0,0,0)" stroke-linecap="butt" stroke-miterlimit="10.0"><path d="M 189.3966,148.8285 l 0.0000,-24.3184 l -21.0603,-12.1592 l -21.0603,12.1592 l -0.0000,24.3184 l 21.0603,12.1592 Z"/></g><g stroke-width="1.716909424370583" stroke-linejoin="miter" fill-opacity="0.0" stroke="rgb(0,0,0)" stroke-opacity="1.0" fill="rgb(0,0,0)" stroke-linecap="butt" stroke-miterlimit="10.0"><path d="M 147.2759,148.8285 l 0.0000,-24.3184 l -21.0603,-12.1592 l -21.0603,12.1592 l -0.0000,24.3184 l 21.0603,12.1592 Z"/></g><g stroke-width="1.716909424370583" stroke-linejoin="miter" fill-opacity="0.0" stroke="rgb(0,0,0)" stroke-opacity="1.0" fill="rgb(0,0,0)" stroke-linecap="butt" stroke-miterlimit="10.0"><path d="M 105.1552,148.8285 l 0.0000,-24.3184 l -21.0603,-12.1592 l -21.0603,12.1592 l -0.0000,24.3184 l 21.0603,12.1592 Z"/></g><g stroke-width="1.716909424370583" stroke-linejoin="miter" fill-opacity="0.0" stroke="rgb(0,0,0)" stroke-opacity="1.0" fill="rgb(0,0,0)" stroke-linecap="butt" stroke-miterlimit="10.0"><path d="M 63.0345,148.8285 l 0.0000,-24.3184 l -21.0603,-12.1592 l -21.0603,12.1592 l -0.0000,24.3184 l 21.0603,12.1592 Z"/></g><g stroke-width="1.716909424370583" stroke-linejoin="miter" fill-opacity="0.0" stroke="rgb(0,0,0)" stroke-opacity="1.0" fill="rgb(0,0,0)" stroke-linecap="butt" stroke-miterlimit="10.0"><path d="M 379.0862,186.2789 l 0.0000,-24.3184 l -21.0603,-12.1592 l -21.0603,12.1592 l -0.0000,24.3184 l 21.0603,12.1592 Z"/></g><g stroke-width="1.716909424370583" stroke-linejoin="miter" fill-opacity="0.0" stroke="rgb(0,0,0)" stroke-opacity="1.0" fill="rgb(0,0,0)" stroke-linecap="butt" stroke-miterlimit="10.0"><path d="M 336.9655,186.2789 l 0.0000,-24.3184 l -21.0603,-12.1592 l -21.0603,12.1592 l -0.0000,24.3184 l 21.0603,12.1592 Z"/></g><g stroke-width="1.716909424370583" stroke-linejoin="miter" fill-opacity="0.0" stroke="rgb(0,0,0)" stroke-opacity="1.0" fill="rgb(0,0,0)" stroke-linecap="butt" stroke-miterlimit="10.0"><path d="M 294.8448,186.2789 l 0.0000,-24.3184 l -21.0603,-12.1592 l -21.0603,12.1592 l -0.0000,24.3184 l 21.0603,12.1592 Z"/></g><g stroke-width="1.716909424370583" stroke-linejoin="miter" fill-opacity="0.0" stroke="rgb(0,0,0)" stroke-opacity="1.0" fill="rgb(0,0,0)" stroke-linecap="butt" stroke-miterlimit="10.0"><path d="M 252.7241,186.2789 l 0.0000,-24.3184 l -21.0603,-12.1592 l -21.0603,12.1592 l -0.0000,24.3184 l 21.0603,12.1592 Z"/></g><g stroke-width="1.716909424370583" stroke-linejoin="miter" fill-opacity="0.0" stroke="rgb(0,0,0)" stroke-opacity="1.0" fill="rgb(0,0,0)" stroke-linecap="butt" stroke-miterlimit="10.0"><path d="M 210.6034,186.2789 l 0.0000,-24.3184 l -21.0603,-12.1592 l -21.0603,12.1592 l -0.0000,24.3184 l 21.0603,12.1592 Z"/></g><g stroke-width="1.716909424370583" stroke-linejoin="miter" fill-opacity="0.0" stroke="rgb(0,0,0)" stroke-opacity="1.0" fill="rgb(0,0,0)" stroke-linecap="butt" stroke-miterlimit="10.0"><path d="M 168.4827,186.2789 l 0.0000,-24.3184 l -21.0603,-12.1592 l -21.0603,12.1592 l -0.0000,24.3184 l 21.0603,12.1592 Z"/></g><g stroke-width="1.716909424370583" stroke-linejoin="miter" fill-opacity="0.0" stroke="rgb(0,0,0)" stroke-opacity="1.0" fill="rgb(0,0,0)" stroke-linecap="butt" stroke-miterlimit="10.0"><path d="M 126.3621,186.2789 l 0.0000,-24.3184 l -21.0603,-12.1592 l -21.0603,12.1592 l -0.0000,24.3184 l 21.0603,12.1592 Z"/></g><g stroke-width="1.716909424370583" stroke-linejoin="miter" fill-opacity="0.0" stroke="rgb(0,0,0)" stroke-opacity="1.0" fill="rgb(0,0,0)" stroke-linecap="butt" stroke-miterlimit="10.0"><path d="M 84.2414,186.2789 l 0.0000,-24.3184 l -21.0603,-12.1592 l -21.0603,12.1592 l -0.0000,24.3184 l 21.0603,12.1592 Z"/></g><g stroke-width="1.716909424370583" stroke-linejoin="miter" fill-opacity="0.0" stroke="rgb(0,0,0)" stroke-opacity="1.0" fill="rgb(0,0,0)" stroke-linecap="butt" stroke-miterlimit="10.0"><path d="M 42.1207,186.2789 l 0.0000,-24.3184 l -21.0603,-12.1592 l -21.0603,12.1592 l -0.0000,24.3184 l 21.0603,12.1592 Z"/></g><g stroke-width="1.716909424370583" stroke-linejoin="miter" fill-opacity="0.0" stroke="rgb(0,0,0)" stroke-opacity="1.0" fill="rgb(0,0,0)" stroke-linecap="butt" stroke-miterlimit="10.0"><path d="M 400.0000,223.7292 l 0.0000,-24.3184 l -21.0603,-12.1592 l -21.0603,12.1592 l -0.0000,24.3184 l 21.0603,12.1592 Z"/></g><g stroke-width="1.716909424370583" stroke-linejoin="miter" fill-opacity="0.0" stroke="rgb(0,0,0)" stroke-opacity="1.0" fill="rgb(0,0,0)" stroke-linecap="butt" stroke-miterlimit="10.0"><path d="M 357.8793,223.7292 l 0.0000,-24.3184 l -21.0603,-12.1592 l -21.0603,12.1592 l -0.0000,24.3184 l 21.0603,12.1592 Z"/></g><g stroke-width="1.716909424370583" stroke-linejoin="miter" fill-opacity="0.0" stroke="rgb(0,0,0)" stroke-opacity="1.0" fill="rgb(0,0,0)" stroke-linecap="butt" stroke-miterlimit="10.0"><path d="M 315.7586,223.7292 l 0.0000,-24.3184 l -21.0603,-12.1592 l -21.0603,12.1592 l -0.0000,24.3184 l 21.0603,12.1592 Z"/></g><g stroke-width="1.716909424370583" stroke-linejoin="miter" fill-opacity="0.0" stroke="rgb(0,0,0)" stroke-opacity="1.0" fill="rgb(0,0,0)" stroke-linecap="butt" stroke-miterlimit="10.0"><path d="M 273.6379,223.7292 l 0.0000,-24.3184 l -21.0603,-12.1592 l -21.0603,12.1592 l -0.0000,24.3184 l 21.0603,12.1592 Z"/></g><g stroke-width="1.716909424370583" stroke-linejoin="miter" fill-opacity="0.0" stroke="rgb(0,0,0)" stroke-opacity="1.0" fill="rgb(0,0,0)" stroke-linecap="butt" stroke-miterlimit="10.0"><path d="M 231.5173,223.7292 l 0.0000,-24.3184 l -21.0603,-12.1592 l -21.0603,12.1592 l -0.0000,24.3184 l 21.0603,12.1592 Z"/></g><g stroke-width="1.716909424370583" stroke-linejoin="miter" fill-opacity="0.0" stroke="rgb(0,0,0)" stroke-opacity="1.0" fill="rgb(0,0,0)" stroke-linecap="butt" stroke-miterlimit="10.0"><path d="M 189.3966,223.7292 l 0.0000,-24.3184 l -21.0603,-12.1592 l -21.0603,12.1592 l -0.0000,24.3184 l 21.0603,12.1592 Z"/></g><g stroke-width="1.716909424370583" stroke-linejoin="miter" fill-opacity="0.0" stroke="rgb(0,0,0)" stroke-opacity="1.0" fill="rgb(0,0,0)" stroke-linecap="butt" stroke-miterlimit="10.0"><path d="M 147.2759,223.7292 l 0.0000,-24.3184 l -21.0603,-12.1592 l -21.0603,12.1592 l -0.0000,24.3184 l 21.0603,12.1592 Z"/></g><g stroke-width="1.716909424370583" stroke-linejoin="miter" fill-opacity="0.0" stroke="rgb(0,0,0)" stroke-opacity="1.0" fill="rgb(0,0,0)" stroke-linecap="butt" stroke-miterlimit="10.0"><path d="M 105.1552,223.7292 l 0.0000,-24.3184 l -21.0603,-12.1592 l -21.0603,12.1592 l -0.0000,24.3184 l 21.0603,12.1592 Z"/></g><g stroke-width="1.716909424370583" stroke-linejoin="miter" fill-opacity="0.0" stroke="rgb(0,0,0)" stroke-opacity="1.0" fill="rgb(0,0,0)" stroke-linecap="butt" stroke-miterlimit="10.0"><path d="M 63.0345,223.7292 l 0.0000,-24.3184 l -21.0603,-12.1592 l -21.0603,12.1592 l -0.0000,24.3184 l 21.0603,12.1592 Z"/></g><g stroke-width="1.716909424370583" stroke-linejoin="miter" fill-opacity="0.0" stroke="rgb(0,0,0)" stroke-opacity="1.0" fill="rgb(0,0,0)" stroke-linecap="butt" stroke-miterlimit="10.0"><path d="M 379.0862,261.1795 l 0.0000,-24.3184 l -21.0603,-12.1592 l -21.0603,12.1592 l -0.0000,24.3184 l 21.0603,12.1592 Z"/></g><g stroke-width="1.716909424370583" stroke-linejoin="miter" fill-opacity="0.0" stroke="rgb(0,0,0)" stroke-opacity="1.0" fill="rgb(0,0,0)" stroke-linecap="butt" stroke-miterlimit="10.0"><path d="M 336.9655,261.1795 l 0.0000,-24.3184 l -21.0603,-12.1592 l -21.0603,12.1592 l -0.0000,24.3184 l 21.0603,12.1592 Z"/></g><g stroke-width="1.716909424370583" stroke-linejoin="miter" fill-opacity="0.0" stroke="rgb(0,0,0)" stroke-opacity="1.0" fill="rgb(0,0,0)" stroke-linecap="butt" stroke-miterlimit="10.0"><path d="M 294.8448,261.1795 l 0.0000,-24.3184 l -21.0603,-12.1592 l -21.0603,12.1592 l -0.0000,24.3184 l 21.0603,12.1592 Z"/></g><g stroke-width="1.716909424370583" stroke-linejoin="miter" fill-opacity="0.0" stroke="rgb(0,0,0)" stroke-opacity="1.0" fill="rgb(0,0,0)" stroke-linecap="butt" stroke-miterlimit="10.0"><path d="M 252.7241,261.1795 l 0.0000,-24.3184 l -21.0603,-12.1592 l -21.0603,12.1592 l -0.0000,24.3184 l 21.0603,12.1592 Z"/></g><g stroke-width="1.716909424370583" stroke-linejoin="miter" fill-opacity="0.0" stroke="rgb(0,0,0)" stroke-opacity="1.0" fill="rgb(0,0,0)" stroke-linecap="butt" stroke-miterlimit="10.0"><path d="M 210.6034,261.1795 l 0.0000,-24.3184 l -21.0603,-12.1592 l -21.0603,12.1592 l -0.0000,24.3184 l 21.0603,12.1592 Z"/></g><g stroke-width="1.716909424370583" stroke-linejoin="miter" fill-opacity="0.0" stroke="rgb(0,0,0)" stroke-opacity="1.0" fill="rgb(0,0,0)" stroke-linecap="butt" stroke-miterlimit="10.0"><path d="M 168.4827,261.1795 l 0.0000,-24.3184 l -21.0603,-12.1592 l -21.0603,12.1592 l -0.0000,24.3184 l 21.0603,12.1592 Z"/></g><g stroke-width="1.716909424370583" stroke-linejoin="miter" fill-opacity="0.0" stroke="rgb(0,0,0)" stroke-opacity="1.0" fill="rgb(0,0,0)" stroke-linecap="butt" stroke-miterlimit="10.0"><path d="M 126.3621,261.1795 l 0.0000,-24.3184 l -21.0603,-12.1592 l -21.0603,12.1592 l -0.0000,24.3184 l 21.0603,12.1592 Z"/></g><g stroke-width="1.716909424370583" stroke-linejoin="miter" fill-opacity="0.0" stroke="rgb(0,0,0)" stroke-opacity="1.0" fill="rgb(0,0,0)" stroke-linecap="butt" stroke-miterlimit="10.0"><path d="M 84.2414,261.1795 l 0.0000,-24.3184 l -21.0603,-12.1592 l -21.0603,12.1592 l -0.0000,24.3184 l 21.0603,12.1592 Z"/></g><g stroke-width="1.716909424370583" stroke-linejoin="miter" fill-opacity="0.0" stroke="rgb(0,0,0)" stroke-opacity="1.0" fill="rgb(0,0,0)" stroke-linecap="butt" stroke-miterlimit="10.0"><path d="M 42.1207,261.1795 l 0.0000,-24.3184 l -21.0603,-12.1592 l -21.0603,12.1592 l -0.0000,24.3184 l 21.0603,12.1592 Z"/></g><g stroke-width="1.716909424370583" stroke-linejoin="miter" fill-opacity="0.0" stroke="rgb(0,0,0)" stroke-opacity="1.0" fill="rgb(0,0,0)" stroke-linecap="butt" stroke-miterlimit="10.0"><path d="M 400.0000,298.6298 l 0.0000,-24.3184 l -21.0603,-12.1592 l -21.0603,12.1592 l -0.0000,24.3184 l 21.0603,12.1592 Z"/></g><g stroke-width="1.716909424370583" stroke-linejoin="miter" fill-opacity="0.0" stroke="rgb(0,0,0)" stroke-opacity="1.0" fill="rgb(0,0,0)" stroke-linecap="butt" stroke-miterlimit="10.0"><path d="M 357.8793,298.6298 l 0.0000,-24.3184 l -21.0603,-12.1592 l -21.0603,12.1592 l -0.0000,24.3184 l 21.0603,12.1592 Z"/></g><g stroke-width="1.716909424370583" stroke-linejoin="miter" fill-opacity="0.0" stroke="rgb(0,0,0)" stroke-opacity="1.0" fill="rgb(0,0,0)" stroke-linecap="butt" stroke-miterlimit="10.0"><path d="M 315.7586,298.6298 l 0.0000,-24.3184 l -21.0603,-12.1592 l -21.0603,12.1592 l -0.0000,24.3184 l 21.0603,12.1592 Z"/></g><g stroke-width="1.716909424370583" stroke-linejoin="miter" fill-opacity="0.0" stroke="rgb(0,0,0)" stroke-opacity="1.0" fill="rgb(0,0,0)" stroke-linecap="butt" stroke-miterlimit="10.0"><path d="M 273.6379,298.6298 l 0.0000,-24.3184 l -21.0603,-12.1592 l -21.0603,12.1592 l -0.0000,24.3184 l 21.0603,12.1592 Z"/></g><g stroke-width="1.716909424370583" stroke-linejoin="miter" fill-opacity="0.0" stroke="rgb(0,0,0)" stroke-opacity="1.0" fill="rgb(0,0,0)" stroke-linecap="butt" stroke-miterlimit="10.0"><path d="M 231.5173,298.6298 l 0.0000,-24.3184 l -21.0603,-12.1592 l -21.0603,12.1592 l -0.0000,24.3184 l 21.0603,12.1592 Z"/></g><g stroke-width="1.716909424370583" stroke-linejoin="miter" fill-opacity="0.0" stroke="rgb(0,0,0)" stroke-opacity="1.0" fill="rgb(0,0,0)" stroke-linecap="butt" stroke-miterlimit="10.0"><path d="M 189.3966,298.6298 l 0.0000,-24.3184 l -21.0603,-12.1592 l -21.0603,12.1592 l -0.0000,24.3184 l 21.0603,12.1592 Z"/></g><g stroke-width="1.716909424370583" stroke-linejoin="miter" fill-opacity="0.0" stroke="rgb(0,0,0)" stroke-opacity="1.0" fill="rgb(0,0,0)" stroke-linecap="butt" stroke-miterlimit="10.0"><path d="M 147.2759,298.6298 l 0.0000,-24.3184 l -21.0603,-12.1592 l -21.0603,12.1592 l -0.0000,24.3184 l 21.0603,12.1592 Z"/></g><g stroke-width="1.716909424370583" stroke-linejoin="miter" fill-opacity="0.0" stroke="rgb(0,0,0)" stroke-opacity="1.0" fill="rgb(0,0,0)" stroke-linecap="butt" stroke-miterlimit="10.0"><path d="M 105.1552,298.6298 l 0.0000,-24.3184 l -21.0603,-12.1592 l -21.0603,12.1592 l -0.0000,24.3184 l 21.0603,12.1592 Z"/></g><g stroke-width="1.716909424370583" stroke-linejoin="miter" fill-opacity="0.0" stroke="rgb(0,0,0)" stroke-opacity="1.0" fill="rgb(0,0,0)" stroke-linecap="butt" stroke-miterlimit="10.0"><path d="M 63.0345,298.6298 l 0.0000,-24.3184 l -21.0603,-12.1592 l -21.0603,12.1592 l -0.0000,24.3184 l 21.0603,12.1592 Z"/></g><g stroke-width="1.716909424370583" stroke-linejoin="miter" fill-opacity="0.0" stroke="rgb(0,0,0)" stroke-opacity="1.0" fill="rgb(0,0,0)" stroke-linecap="butt" stroke-miterlimit="10.0"><path d="M 379.0862,336.0802 l 0.0000,-24.3184 l -21.0603,-12.1592 l -21.0603,12.1592 l -0.0000,24.3184 l 21.0603,12.1592 Z"/></g><g stroke-width="1.716909424370583" stroke-linejoin="miter" fill-opacity="0.0" stroke="rgb(0,0,0)" stroke-opacity="1.0" fill="rgb(0,0,0)" stroke-linecap="butt" stroke-miterlimit="10.0"><path d="M 336.9655,336.0802 l 0.0000,-24.3184 l -21.0603,-12.1592 l -21.0603,12.1592 l -0.0000,24.3184 l 21.0603,12.1592 Z"/></g><g stroke-width="1.716909424370583" stroke-linejoin="miter" fill-opacity="0.0" stroke="rgb(0,0,0)" stroke-opacity="1.0" fill="rgb(0,0,0)" stroke-linecap="butt" stroke-miterlimit="10.0"><path d="M 294.8448,336.0802 l 0.0000,-24.3184 l -21.0603,-12.1592 l -21.0603,12.1592 l -0.0000,24.3184 l 21.0603,12.1592 Z"/></g><g stroke-width="1.716909424370583" stroke-linejoin="miter" fill-opacity="0.0" stroke="rgb(0,0,0)" stroke-opacity="1.0" fill="rgb(0,0,0)" stroke-linecap="butt" stroke-miterlimit="10.0"><path d="M 252.7241,336.0802 l 0.0000,-24.3184 l -21.0603,-12.1592 l -21.0603,12.1592 l -0.0000,24.3184 l 21.0603,12.1592 Z"/></g><g stroke-width="1.716909424370583" stroke-linejoin="miter" fill-opacity="0.0" stroke="rgb(0,0,0)" stroke-opacity="1.0" fill="rgb(0,0,0)" stroke-linecap="butt" stroke-miterlimit="10.0"><path d="M 210.6034,336.0802 l 0.0000,-24.3184 l -21.0603,-12.1592 l -21.0603,12.1592 l -0.0000,24.3184 l 21.0603,12.1592 Z"/></g><g stroke-width="1.716909424370583" stroke-linejoin="miter" fill-opacity="0.0" stroke="rgb(0,0,0)" stroke-opacity="1.0" fill="rgb(0,0,0)" stroke-linecap="butt" stroke-miterlimit="10.0"><path d="M 168.4827,336.0802 l 0.0000,-24.3184 l -21.0603,-12.1592 l -21.0603,12.1592 l -0.0000,24.3184 l 21.0603,12.1592 Z"/></g><g stroke-width="1.716909424370583" stroke-linejoin="miter" fill-opacity="0.0" stroke="rgb(0,0,0)" stroke-opacity="1.0" fill="rgb(0,0,0)" stroke-linecap="butt" stroke-miterlimit="10.0"><path d="M 126.3621,336.0802 l 0.0000,-24.3184 l -21.0603,-12.1592 l -21.0603,12.1592 l -0.0000,24.3184 l 21.0603,12.1592 Z"/></g><g stroke-width="1.716909424370583" stroke-linejoin="miter" fill-opacity="0.0" stroke="rgb(0,0,0)" stroke-opacity="1.0" fill="rgb(0,0,0)" stroke-linecap="butt" stroke-miterlimit="10.0"><path d="M 84.2414,336.0802 l 0.0000,-24.3184 l -21.0603,-12.1592 l -21.0603,12.1592 l -0.0000,24.3184 l 21.0603,12.1592 Z"/></g><g stroke-width="1.716909424370583" stroke-linejoin="miter" fill-opacity="0.0" stroke="rgb(0,0,0)" stroke-opacity="1.0" fill="rgb(0,0,0)" stroke-linecap="butt" stroke-miterlimit="10.0"><path d="M 42.1207,336.0802 l 0.0000,-24.3184 l -21.0603,-12.1592 l -21.0603,12.1592 l -0.0000,24.3184 l 21.0603,12.1592 Z"/></g><g stroke-width="1.716909424370583" stroke-linejoin="miter" fill-opacity="0.0" stroke="rgb(0,0,0)" stroke-opacity="1.0" fill="rgb(0,0,0)" stroke-linecap="butt" stroke-miterlimit="10.0"><path d="M 400.0000,373.5305 l 0.0000,-24.3184 l -21.0603,-12.1592 l -21.0603,12.1592 l -0.0000,24.3184 l 21.0603,12.1592 Z"/></g><g stroke-width="1.716909424370583" stroke-linejoin="miter" fill-opacity="0.0" stroke="rgb(0,0,0)" stroke-opacity="1.0" fill="rgb(0,0,0)" stroke-linecap="butt" stroke-miterlimit="10.0"><path d="M 357.8793,373.5305 l 0.0000,-24.3184 l -21.0603,-12.1592 l -21.0603,12.1592 l -0.0000,24.3184 l 21.0603,12.1592 Z"/></g><g stroke-width="1.716909424370583" stroke-linejoin="miter" fill-opacity="0.0" stroke="rgb(0,0,0)" stroke-opacity="1.0" fill="rgb(0,0,0)" stroke-linecap="butt" stroke-miterlimit="10.0"><path d="M 315.7586,373.5305 l 0.0000,-24.3184 l -21.0603,-12.1592 l -21.0603,12.1592 l -0.0000,24.3184 l 21.0603,12.1592 Z"/></g><g stroke-width="1.716909424370583" stroke-linejoin="miter" fill-opacity="0.0" stroke="rgb(0,0,0)" stroke-opacity="1.0" fill="rgb(0,0,0)" stroke-linecap="butt" stroke-miterlimit="10.0"><path d="M 273.6379,373.5305 l 0.0000,-24.3184 l -21.0603,-12.1592 l -21.0603,12.1592 l -0.0000,24.3184 l 21.0603,12.1592 Z"/></g><g stroke-width="1.716909424370583" stroke-linejoin="miter" fill-opacity="0.0" stroke="rgb(0,0,0)" stroke-opacity="1.0" fill="rgb(0,0,0)" stroke-linecap="butt" stroke-miterlimit="10.0"><path d="M 231.5173,373.5305 l 0.0000,-24.3184 l -21.0603,-12.1592 l -21.0603,12.1592 l -0.0000,24.3184 l 21.0603,12.1592 Z"/></g><g stroke-width="1.716909424370583" stroke-linejoin="miter" fill-opacity="0.0" stroke="rgb(0,0,0)" stroke-opacity="1.0" fill="rgb(0,0,0)" stroke-linecap="butt" stroke-miterlimit="10.0"><path d="M 189.3966,373.5305 l 0.0000,-24.3184 l -21.0603,-12.1592 l -21.0603,12.1592 l -0.0000,24.3184 l 21.0603,12.1592 Z"/></g><g stroke-width="1.716909424370583" stroke-linejoin="miter" fill-opacity="0.0" stroke="rgb(0,0,0)" stroke-opacity="1.0" fill="rgb(0,0,0)" stroke-linecap="butt" stroke-miterlimit="10.0"><path d="M 147.2759,373.5305 l 0.0000,-24.3184 l -21.0603,-12.1592 l -21.0603,12.1592 l -0.0000,24.3184 l 21.0603,12.1592 Z"/></g><g stroke-width="1.716909424370583" stroke-linejoin="miter" fill-opacity="0.0" stroke="rgb(0,0,0)" stroke-opacity="1.0" fill="rgb(0,0,0)" stroke-linecap="butt" stroke-miterlimit="10.0"><path d="M 105.1552,373.5305 l 0.0000,-24.3184 l -21.0603,-12.1592 l -21.0603,12.1592 l -0.0000,24.3184 l 21.0603,12.1592 Z"/></g><g stroke-width="1.716909424370583" stroke-linejoin="miter" fill-opacity="0.0" stroke="rgb(0,0,0)" stroke-opacity="1.0" fill="rgb(0,0,0)" stroke-linecap="butt" stroke-miterlimit="10.0"><path d="M 63.0345,373.5305 l 0.0000,-24.3184 l -21.0603,-12.1592 l -21.0603,12.1592 l -0.0000,24.3184 l 21.0603,12.1592 Z"/></g><g stroke-width="1.716909424370583" stroke-linejoin="miter" fill-opacity="0.0" stroke="rgb(0,0,0)" stroke-opacity="1.0" fill="rgb(0,0,0)" stroke-linecap="butt" stroke-miterlimit="10.0"><path d="M 379.0862,410.9808 l 0.0000,-24.3184 l -21.0603,-12.1592 l -21.0603,12.1592 l -0.0000,24.3184 l 21.0603,12.1592 Z"/></g><g stroke-width="1.716909424370583" stroke-linejoin="miter" fill-opacity="0.0" stroke="rgb(0,0,0)" stroke-opacity="1.0" fill="rgb(0,0,0)" stroke-linecap="butt" stroke-miterlimit="10.0"><path d="M 336.9655,410.9808 l 0.0000,-24.3184 l -21.0603,-12.1592 l -21.0603,12.1592 l -0.0000,24.3184 l 21.0603,12.1592 Z"/></g><g stroke-width="1.716909424370583" stroke-linejoin="miter" fill-opacity="0.0" stroke="rgb(0,0,0)" stroke-opacity="1.0" fill="rgb(0,0,0)" stroke-linecap="butt" stroke-miterlimit="10.0"><path d="M 294.8448,410.9808 l 0.0000,-24.3184 l -21.0603,-12.1592 l -21.0603,12.1592 l -0.0000,24.3184 l 21.0603,12.1592 Z"/></g><g stroke-width="1.716909424370583" stroke-linejoin="miter" fill-opacity="0.0" stroke="rgb(0,0,0)" stroke-opacity="1.0" fill="rgb(0,0,0)" stroke-linecap="butt" stroke-miterlimit="10.0"><path d="M 252.7241,410.9808 l 0.0000,-24.3184 l -21.0603,-12.1592 l -21.0603,12.1592 l -0.0000,24.3184 l 21.0603,12.1592 Z"/></g><g stroke-width="1.716909424370583" stroke-linejoin="miter" fill-opacity="0.0" stroke="rgb(0,0,0)" stroke-opacity="1.0" fill="rgb(0,0,0)" stroke-linecap="butt" stroke-miterlimit="10.0"><path d="M 210.6034,410.9808 l 0.0000,-24.3184 l -21.0603,-12.1592 l -21.0603,12.1592 l -0.0000,24.3184 l 21.0603,12.1592 Z"/></g><g stroke-width="1.716909424370583" stroke-linejoin="miter" fill-opacity="0.0" stroke="rgb(0,0,0)" stroke-opacity="1.0" fill="rgb(0,0,0)" stroke-linecap="butt" stroke-miterlimit="10.0"><path d="M 168.4827,410.9808 l 0.0000,-24.3184 l -21.0603,-12.1592 l -21.0603,12.1592 l -0.0000,24.3184 l 21.0603,12.1592 Z"/></g><g stroke-width="1.716909424370583" stroke-linejoin="miter" fill-opacity="0.0" stroke="rgb(0,0,0)" stroke-opacity="1.0" fill="rgb(0,0,0)" stroke-linecap="butt" stroke-miterlimit="10.0"><path d="M 126.3621,410.9808 l 0.0000,-24.3184 l -21.0603,-12.1592 l -21.0603,12.1592 l -0.0000,24.3184 l 21.0603,12.1592 Z"/></g><g stroke-width="1.716909424370583" stroke-linejoin="miter" fill-opacity="0.0" stroke="rgb(0,0,0)" stroke-opacity="1.0" fill="rgb(0,0,0)" stroke-linecap="butt" stroke-miterlimit="10.0"><path d="M 84.2414,410.9808 l 0.0000,-24.3184 l -21.0603,-12.1592 l -21.0603,12.1592 l -0.0000,24.3184 l 21.0603,12.1592 Z"/></g><g stroke-width="1.716909424370583" stroke-linejoin="miter" fill-opacity="0.0" stroke="rgb(0,0,0)" stroke-opacity="1.0" fill="rgb(0,0,0)" stroke-linecap="butt" stroke-miterlimit="10.0"><path d="M 42.1207,410.9808 l 0.0000,-24.3184 l -21.0603,-12.1592 l -21.0603,12.1592 l -0.0000,24.3184 l 21.0603,12.1592 Z"/></g><g stroke-width="1.716909424370583" stroke-linejoin="miter" fill-opacity="0.0" stroke="rgb(0,0,0)" stroke-opacity="1.0" fill="rgb(0,0,0)" stroke-linecap="butt" stroke-miterlimit="10.0"><path d="M 400.0000,448.4311 l 0.0000,-24.3184 l -21.0603,-12.1592 l -21.0603,12.1592 l -0.0000,24.3184 l 21.0603,12.1592 Z"/></g><g stroke-width="1.716909424370583" stroke-linejoin="miter" fill-opacity="0.0" stroke="rgb(0,0,0)" stroke-opacity="1.0" fill="rgb(0,0,0)" stroke-linecap="butt" stroke-miterlimit="10.0"><path d="M 357.8793,448.4311 l 0.0000,-24.3184 l -21.0603,-12.1592 l -21.0603,12.1592 l -0.0000,24.3184 l 21.0603,12.1592 Z"/></g><g stroke-width="1.716909424370583" stroke-linejoin="miter" fill-opacity="0.0" stroke="rgb(0,0,0)" stroke-opacity="1.0" fill="rgb(0,0,0)" stroke-linecap="butt" stroke-miterlimit="10.0"><path d="M 315.7586,448.4311 l 0.0000,-24.3184 l -21.0603,-12.1592 l -21.0603,12.1592 l -0.0000,24.3184 l 21.0603,12.1592 Z"/></g><g stroke-width="1.716909424370583" stroke-linejoin="miter" fill-opacity="0.0" stroke="rgb(0,0,0)" stroke-opacity="1.0" fill="rgb(0,0,0)" stroke-linecap="butt" stroke-miterlimit="10.0"><path d="M 273.6379,448.4311 l 0.0000,-24.3184 l -21.0603,-12.1592 l -21.0603,12.1592 l -0.0000,24.3184 l 21.0603,12.1592 Z"/></g><g stroke-width="1.716909424370583" stroke-linejoin="miter" fill-opacity="0.0" stroke="rgb(0,0,0)" stroke-opacity="1.0" fill="rgb(0,0,0)" stroke-linecap="butt" stroke-miterlimit="10.0"><path d="M 231.5173,448.4311 l 0.0000,-24.3184 l -21.0603,-12.1592 l -21.0603,12.1592 l -0.0000,24.3184 l 21.0603,12.1592 Z"/></g><g stroke-width="1.716909424370583" stroke-linejoin="miter" fill-opacity="0.0" stroke="rgb(0,0,0)" stroke-opacity="1.0" fill="rgb(0,0,0)" stroke-linecap="butt" stroke-miterlimit="10.0"><path d="M 189.3966,448.4311 l 0.0000,-24.3184 l -21.0603,-12.1592 l -21.0603,12.1592 l -0.0000,24.3184 l 21.0603,12.1592 Z"/></g><g stroke-width="1.716909424370583" stroke-linejoin="miter" fill-opacity="0.0" stroke="rgb(0,0,0)" stroke-opacity="1.0" fill="rgb(0,0,0)" stroke-linecap="butt" stroke-miterlimit="10.0"><path d="M 147.2759,448.4311 l 0.0000,-24.3184 l -21.0603,-12.1592 l -21.0603,12.1592 l -0.0000,24.3184 l 21.0603,12.1592 Z"/></g><g stroke-width="1.716909424370583" stroke-linejoin="miter" fill-opacity="0.0" stroke="rgb(0,0,0)" stroke-opacity="1.0" fill="rgb(0,0,0)" stroke-linecap="butt" stroke-miterlimit="10.0"><path d="M 105.1552,448.4311 l 0.0000,-24.3184 l -21.0603,-12.1592 l -21.0603,12.1592 l -0.0000,24.3184 l 21.0603,12.1592 Z"/></g><g stroke-width="1.716909424370583" stroke-linejoin="miter" fill-opacity="0.0" stroke="rgb(0,0,0)" stroke-opacity="1.0" fill="rgb(0,0,0)" stroke-linecap="butt" stroke-miterlimit="10.0"><path d="M 63.0345,448.4311 l 0.0000,-24.3184 l -21.0603,-12.1592 l -21.0603,12.1592 l -0.0000,24.3184 l 21.0603,12.1592 Z"/></g></svg>