<?xml version="1.0" encoding="UTF-8"?>
<!DOCTYPE svg PUBLIC "-//W3C//DTD SVG 1.1//EN"
    "http://www.w3.org/Graphics/SVG/1.1/DTD/svg11.dtd"><svg stroke="rgb(0,0,0)" xmlns="http://www.w3.org/2000/svg" font-size="1" width="400.0000" stroke-opacity="1" xmlns:xlink="http://www.w3.org/1999/xlink" viewBox="0.0 0.0 400.00000000000006 199.4566534296029" height="199.4567" version="1.1"><defs></defs><g fill="rgb(0,0,0)" stroke="rgb(0,0,0)" stroke-linecap="butt" stroke-width="1.1298329885206304" stroke-miterlimit="10.0" fill-opacity="0.0" stroke-opacity="1.0" stroke-linejoin="miter"><path d="M 400.0000,189.4838 l 0.0000,-19.9457 l -17.2735,-9.9728 l -17.2735,9.9728 l -0.0000,19.9457 l 17.2735,9.9728 Z"/></g><g fill="rgb(0,0,0)" stroke="rgb(0,0,0)" stroke-linecap="butt" stroke-width="1.1298329885206304" stroke-miterlimit="10.0" fill-opacity="0.0" stroke-opacity="1.0" stroke-linejoin="miter"><path d="M 364.7754,149.5925 l 0.0000,-19.9457 l -17.2735,-9.9728 l -17.2735,9.9728 l -0.0000,19.9457 l 17.2735,9.9728 Z"/></g><g fill="rgb(0,0,0)" stroke="rgb(0,0,0)" stroke-linecap="butt" stroke-width="1.1298329885206304" stroke-miterlimit="10.0" fill-opacity="0.0" stroke-opacity="1.0" stroke-linejoin="miter"><path d="M 330.2285,149.5925 l 0.0000,-19.9457 l -17.2735,-9.9728 l -17.2735,9.9728 l -0.0000,19.9457 l 17.2735,9.9728 Z"/></g><g fill="rgb(0,0,0)" stroke="rgb(0,0,0)" stroke-linecap="butt" stroke-width="1.1298329885206304" stroke-miterlimit="10.0" fill-opacity="0.0" stroke-opacity="1.0" stroke-linejoin="miter"><path d="M 295.6816,149.5925 l 0.0000,-19.9457 l -17.2735,-9.9728 l -17.2735,9.9728 l -0.0000,19.9457 l 17.2735,9.9728 Z"/></g><g fill="rgb(0,0,0)" stroke="rgb(0,0,0)" stroke-linecap="butt" stroke-width="1.1298329885206304" stroke-miterlimit="10.0" fill-opacity="0.0" stroke-opacity="1.0" stroke-linejoin="miter"><path d="M 261.1347,149.5925 l 0.0000,-19.9457 l -17.2735,-9.9728 l -17.2735,9.9728 l -0.0000,19.9457 l 17.2735,9.9728 Z"/></g><g fill="rgb(0,0,0)" stroke="rgb(0,0,0)" stroke-linecap="butt" stroke-width="1.1298329885206304" stroke-miterlimit="10.0" fill-opacity="0.0" stroke-opacity="1.0" stroke-linejoin="miter"><path d="M 226.5878,149.5925 l 0.0000,-19.9457 l -17.2735,-9.9728 l -17.2735,9.9728 l -0.0000,19.9457 l 17.2735,9.9728 Z"/></g><g fill="rgb(0,0,0)" stroke="rgb(0,0,0)" stroke-linecap="butt" stroke-width="1.1298329885206304" stroke-miterlimit="10.0" fill-opacity="0.0" stroke-opacity="1.0" stroke-linejoin="miter"><path d="M 192.0409,149.5925 l 0.0000,-19.9457 l -17.2735,-9.9728 l -17.2735,9.9728 l -0.0000,19.9457 l 17.2735,9.9728 Z"/></g><g fill="rgb(0,0,0)" stroke="rgb(0,0,0)" stroke-linecap="butt" stroke-width="1.1298329885206304" stroke-miterlimit="10.0" fill-opacity="0.0" stroke-opacity="1.0" stroke-linejoin="miter"><path d="M 157.4940,149.5925 l 0.0000,-19.9457 l -17.2735,-9.9728 l -17.2735,9.9728 l -0.0000,19.9457 l 17.2735,9.9728 Z"/></g><g fill="rgb(0,0,0)" stroke="rgb(0,0,0)" stroke-linecap="butt" stroke-width="1.1298329885206304" stroke-miterlimit="10.0" fill-opacity="0.0" stroke-opacity="1.0" stroke-linejoin="miter"><path d="M 122.9471,149.5925 l 0.0000,-19.9457 l -17.2735,-9.9728 l -17.2735,9.9728 l -0.0000,19.9457 l 17.2735,9.9728 Z"/></g><g fill="rgb(0,0,0)" stroke="rgb(0,0,0)" stroke-linecap="butt" stroke-width="1.1298329885206304" stroke-miterlimit="10.0" fill-opacity="0.0" stroke-opacity="1.0" stroke-linejoin="miter"><path d="M 88.4002,149.5925 l 0.0000,-19.9457 l -17.2735,-9.9728 l -17.2735,9.9728 l -0.0000,19.9457 l 17.2735,9.9728 Z"/></g><g fill="rgb(0,0,0)" stroke="rgb(0,0,0)" stroke-linecap="butt" stroke-width="1.1298329885206304" stroke-miterlimit="10.0" fill-opacity="0.0" stroke-opacity="1.0" stroke-linejoin="miter"><path d="M 346.8243,109.7012 l 0.0000,-19.9457 l -17.2735,-9.9728 l -17.2735,9.9728 l -0.0000,19.9457 l 17.2735,9.9728 Z"/></g><g fill="rgb(0,0,0)" stroke="rgb(0,0,0)" stroke-linecap="butt" stroke-width="1.1298329885206304" stroke-miterlimit="10.0" fill-opacity="0.0" stroke-opacity="1.0" stroke-linejoin="miter"><path d="M 312.2774,109.7012 l 0.0000,-19.9457 l -17.2735,-9.9728 l -17.2735,9.9728 l -0.0000,19.9457 l 17.2735,9.9728 Z"/></g><g fill="rgb(0,0,0)" stroke="rgb(0,0,0)" stroke-linecap="butt" stroke-width="1.1298329885206304" stroke-miterlimit="10.0" fill-opacity="0.0" stroke-opacity="1.0" stroke-linejoin="miter"><path d="M 277.7305,109.7012 l 0.0000,-19.9457 l -17.2735,-9.9728 l -17.2735,9.9728 l -0.0000,19.9457 l 17.2735,9.9728 Z"/></g><g fill="rgb(0,0,0)" stroke="rgb(0,0,0)" stroke-linecap="butt" stroke-width="1.1298329885206304" stroke-miterlimit="10.0" fill-opacity="0.0" stroke-opacity="1.0" stroke-linejoin="miter"><path d="M 243.1836,109.7012 l 0.0000,-19.9457 l -17.2735,-9.9728 l -17.2735,9.9728 l -0.0000,19.9457 l 17.2735,9.9728 Z"/></g><g fill="rgb(0,0,0)" stroke="rgb(0,0,0)" stroke-linecap="butt" stroke-width="1.1298329885206304" stroke-miterlimit="10.0" fill-opacity="0.0" stroke-opacity="1.0" stroke-linejoin="miter"><path d="M 208.6367,109.7012 l 0.0000,-19.9457 l -17.2735,-9.9728 l -17.2735,9.9728 l -0.0000,19.9457 l 17.2735,9.9728 Z"/></g><g fill="rgb(0,0,0)" stroke="rgb(0,0,0)" stroke-linecap="butt" stroke-width="1.1298329885206304" stroke-miterlimit="10.0" fill-opacity="0.0" stroke-opacity="1.0" stroke-linejoin="miter"><path d="M 174.0898,109.7012 l 0.0000,-19.9457 l -17.2735,-9.9728 l -17.2735,9.9728 l -0.0000,19.9457 l 17.2735,9.9728 Z"/></g><g fill="rgb(0,0,0)" stroke="rgb(0,0,0)" stroke-linecap="butt" stroke-width="1.1298329885206304" stroke-miterlimit="10.0" fill-opacity="0.0" stroke-opacity="1.0" stroke-linejoin="miter"><path d="M 139.5429,109.7012 l 0.0000,-19.9457 l -17.2735,-9.9728 l -17.2735,9.9728 l -0.0000,19.9457 l 17.2735,9.9728 Z"/></g><g fill="rgb(0,0,0)" stroke="rgb(0,0,0)" stroke-linecap="butt" stroke-width="1.1298329885206304" stroke-miterlimit="10.0" fill-opacity="0.0" stroke-opacity="1.0" stroke-linejoin="miter"><path d="M 104.9960,109.7012 l 0.0000,-19.9457 l -17.2735,-9.9728 l -17.2735,9.9728 l -0.0000,19.9457 l 17.2735,9.9728 Z"/></g><g fill="rgb(0,0,0)" stroke="rgb(0,0,0)" stroke-linecap="butt" stroke-width="1.1298329885206304" stroke-miterlimit="10.0" fill-opacity="0.0" stroke-opacity="1.0" stroke-linejoin="miter"><path d="M 70.4491,109.7012 l 0.0000,-19.9457 l -17.2735,-9.9728 l -17.2735,9.9728 l -0.0000,19.9457 l 17.2735,9.9728 Z"/></g><g fill="rgb(0,0,0)" stroke="rgb(0,0,0)" stroke-linecap="butt" stroke-width="1.1298329885206304" stroke-miterlimit="10.0" fill-opacity="0.0" stroke-opacity="1.0" stroke-linejoin="miter"><path d="M 328.8733,69.8098 l 0.0000,-19.9457 l -17.2735,-9.9728 l -17.2735,9.9728 l -0.0000,19.9457 l 17.2735,9.9728 Z"/></g><g fill="rgb(0,0,0)" stroke="rgb(0,0,0)" stroke-linecap="butt" stroke-width="1.1298329885206304" stroke-miterlimit="10.0" fill-opacity="0.0" stroke-opacity="1.0" stroke-linejoin="miter"><path d="M 294.3263,69.8098 l 0.0000,-19.9457 l -17.2735,-9.9728 l -17.2735,9.9728 l -0.0000,19.9457 l 17.2735,9.9728 Z"/></g><g fill="rgb(0,0,0)" stroke="rgb(0,0,0)" stroke-linecap="butt" stroke-width="1.1298329885206304" stroke-miterlimit="10.0" fill-opacity="0.0" stroke-opacity="1.0" stroke-linejoin="miter"><path d="M 259.7794,69.8098 l 0.0000,-19.9457 l -17.2735,-9.9728 l -17.2735,9.9728 l -0.0000,19.9457 l 17.2735,9.9728 Z"/></g><g fill="rgb(0,0,0)" stroke="rgb(0,0,0)" stroke-linecap="butt" stroke-width="1.1298329885206304" stroke-miterlimit="10.0" fill-opacity="0.0" stroke-opacity="1.0" stroke-linejoin="miter"><path d="M 225.2325,69.8098 l 0.0000,-19.9457 l -17.2735,-9.9728 l -17.2735,9.9728 l -0.0000,19.9457 l 17.2735,9.9728 Z"/></g><g fill="rgb(0,0,0)" stroke="rgb(0,0,0)" stroke-linecap="butt" stroke-width="1.1298329885206304" stroke-miterlimit="10.0" fill-opacity="0.0" stroke-opacity="1.0" stroke-linejoin="miter"><path d="M 190.6856,69.8098 l 0.0000,-19.9457 l -17.2735,-9.9728 l -17.2735,9.9728 l -0.0000,19.9457 l 17.2735,9.9728 Z"/></g><g fill="rgb(0,0,0)" stroke="rgb(0,0,0)" stroke-linecap="butt" stroke-width="1.1298329885206304" stroke-miterlimit="10.0" fill-opacity="0.0" stroke-opacity="1.0" stroke-linejoin="miter"><path d="M 156.1387,69.8098 l 0.0000,-19.9457 l -17.2735,-9.9728 l -17.2735,9.9728 l -0.0000,19.9457 l 17.2735,9.9728 Z"/></g><g fill="rgb(0,0,0)" stroke="rgb(0,0,0)" stroke-linecap="butt" stroke-width="1.1298329885206304" stroke-miterlimit="10.0" fill-opacity="0.0" stroke-opacity="1.0" stroke-linejoin="miter"><path d="M 121.5918,69.8098 l 0.0000,-19.9457 l -17.2735,-9.9728 l -17.2735,9.9728 l -0.0000,19.9457 l 17.2735,9.9728 Z"/></g><g fill="rgb(0,0,0)" stroke="rgb(0,0,0)" stroke-linecap="butt" stroke-width="1.1298329885206304" stroke-miterlimit="10.0" fill-opacity="0.0" stroke-opacity="1.0" stroke-linejoin="miter"><path d="M 87.0449,69.8098 l 0.0000,-19.9457 l -17.2735,-9.9728 l -17.2735,9.9728 l -0.0000,19.9457 l 17.2735,9.9728 Z"/></g><g fill="rgb(0,0,0)" stroke="rgb(0,0,0)" stroke-linecap="butt" stroke-width="1.1298329885206304" stroke-miterlimit="10.0" fill-opacity="0.0" stroke-opacity="1.0" stroke-linejoin="miter"><path d="M 52.4980,69.8098 l 0.0000,-19.9457 l -17.2735,-9.9728 l -17.2735,9.9728 l -0.0000,19.9457 l 17.2735,9.9728 Z"/></g><g fill="rgb(0,0,0)" stroke="rgb(0,0,0)" stroke-linecap="butt" stroke-width="1.1298329885206304" stroke-miterlimit="10.0" fill-opacity="0.0" stroke-opacity="1.0" stroke-linejoin="miter"><path d="M 310.9222,29.9185 l 0.0000,-19.9457 l -17.2735,-9.9728 l -17.2735,9.9728 l -0.0000,19.9457 l 17.2735,9.9728 Z"/></g><g fill="rgb(0,0,0)" stroke="rgb(0,0,0)" stroke-linecap="butt" stroke-width="1.1298329885206304" stroke-miterlimit="10.0" fill-opacity="0.0" stroke-opacity="1.0" stroke-linejoin="miter"><path d="M 276.3752,29.9185 l 0.0000,-19.9457 l -17.2735,-9.9728 l -17.2735,9.9728 l -0.0000,19.9457 l 17.2735,9.9728 Z"/></g><g fill="rgb(0,0,0)" stroke="rgb(0,0,0)" stroke-linecap="butt" stroke-width="1.1298329885206304" stroke-miterlimit="10.0" fill-opacity="0.0" stroke-opacity="1.0" stroke-linejoin="miter"><path d="M 241.8283,29.9185 l 0.0000,-19.9457 l -17.2735,-9.9728 l -17.2735,9.9728 l -0.0000,19.9457 l 17.2735,9.9728 Z"/></g><g fill="rgb(0,0,0)" stroke="rgb(0,0,0)" stroke-linecap="butt" stroke-width="1.1298329885206304" stroke-miterlimit="10.0" fill-opacity="0.0" stroke-opacity="1.0" stroke-linejoin="miter"><path d="M 207.2814,29.9185 l 0.0000,-19.9457 l -17.2735,-9.9728 l -17.2735,9.9728 l -0.0000,19.9457 l 17.2735,9.9728 Z"/></g><g fill="rgb(0,0,0)" stroke="rgb(0,0,0)" stroke-linecap="butt" stroke-width="1.1298329885206304" stroke-miterlimit="10.0" fill-opacity="0.0" stroke-opacity="1.0" stroke-linejoin="miter"><path d="M 172.7345,29.9185 l 0.0000,-19.9457 l -17.2735,-9.9728 l -17.2735,9.9728 l -0.0000,19.9457 l 17.2735,9.9728 Z"/></g><g fill="rgb(0,0,0)" stroke="rgb(0,0,0)" stroke-linecap="butt" stroke-width="1.1298329885206304" stroke-miterlimit="10.0" fill-opacity="0.0" stroke-opacity="1.0" stroke-linejoin="miter"><path d="M 138.1876,29.9185 l 0.0000,-19.9457 l -17.2735,-9.9728 l -17.2735,9.9728 l -0.0000,19.9457 l 17.2735,9.9728 Z"/></g><g fill="rgb(0,0,0)" stroke="rgb(0,0,0)" stroke-linecap="butt" stroke-width="1.1298329885206304" stroke-miterlimit="10.0" fill-opacity="0.0" stroke-opacity="1.0" stroke-linejoin="miter"><path d="M 103.6407,29.9185 l 0.0000,-19.9457 l -17.2735,-9.9728 l -17.2735,9.9728 l -0.0000,19.9457 l 17.2735,9.9728 Z"/></g><g fill="rgb(0,0,0)" stroke="rgb(0,0,0)" stroke-linecap="butt" stroke-width="1.1298329885206304" stroke-miterlimit="10.0" fill-opacity="0.0" stroke-opacity="1.0" stroke-linejoin="miter"><path d="M 69.0938,29.9185 l 0.0000,-19.9457 l -17.2735,-9.9728 l -17.2735,9.9728 l -0.0000,19.9457 l 17.2735,9.9728 Z"/></g><g fill="rgb(0,0,0)" stroke="rgb(0,0,0)" stroke-linecap="butt" stroke-width="1.1298329885206304" stroke-miterlimit="10.0" fill-opacity="0.0" stroke-opacity="1.0" stroke-linejoin="miter"><path d="M 34.5469,29.9185 l 0.0000,-19.9457 l -17.2735,-9.9728 l -17.2735,9.9728 l -0.0000,19.9457 l 17.2735,9.9728 Z"/></g></svg>