<?xml version="1.0" encoding="UTF-8"?>
<!DOCTYPE svg PUBLIC "-//W3C//DTD SVG 1.1//EN"
    "http://www.w3.org/Graphics/SVG/1.1/DTD/svg11.dtd"><svg stroke="rgb(0,0,0)" xmlns="http://www.w3.org/2000/svg" font-size="1" width="400.0000" stroke-opacity="1" xmlns:xlink="http://www.w3.org/1999/xlink" viewBox="0.0 0.0 400.0 218.71719092308166" height="218.7172" version="1.1"><defs></defs><g fill="rgb(0,0,0)" stroke="rgb(0,0,0)" stroke-linecap="butt" stroke-width="1.183127221353529" stroke-miterlimit="10.0" fill-opacity="0.0" stroke-opacity="1.0" stroke-linejoin="miter"><path d="M 116.6211,207.7813 l 0.0000,-21.8717 l -18.9415,-10.9359 l -18.9415,10.9359 l -0.0000,21.8717 l 18.9415,10.9359 Z"/></g><g fill="rgb(0,0,0)" stroke="rgb(0,0,0)" stroke-linecap="butt" stroke-width="1.183127221353529" stroke-miterlimit="10.0" fill-opacity="0.0" stroke-opacity="1.0" stroke-linejoin="miter"><path d="M 400.0000,164.0379 l 0.0000,-21.8717 l -18.9415,-10.9359 l -18.9415,10.9359 l -0.0000,21.8717 l 18.9415,10.9359 Z"/></g><g fill="rgb(0,0,0)" stroke="rgb(0,0,0)" stroke-linecap="butt" stroke-width="1.183127221353529" stroke-miterlimit="10.0" fill-opacity="0.0" stroke-opacity="1.0" stroke-linejoin="miter"><path d="M 362.1171,164.0379 l 0.0000,-21.8717 l -18.9415,-10.9359 l -18.9415,10.9359 l -0.0000,21.8717 l 18.9415,10.9359 Z"/></g><g fill="rgb(0,0,0)" stroke="rgb(0,0,0)" stroke-linecap="butt" stroke-width="1.183127221353529" stroke-miterlimit="10.0" fill-opacity="0.0" stroke-opacity="1.0" stroke-linejoin="miter"><path d="M 324.2341,164.0379 l 0.0000,-21.8717 l -18.9415,-10.9359 l -18.9415,10.9359 l -0.0000,21.8717 l 18.9415,10.9359 Z"/></g><g fill="rgb(0,0,0)" stroke="rgb(0,0,0)" stroke-linecap="butt" stroke-width="1.183127221353529" stroke-miterlimit="10.0" fill-opacity="0.0" stroke-opacity="1.0" stroke-linejoin="miter"><path d="M 286.3512,164.0379 l 0.0000,-21.8717 l -18.9415,-10.9359 l -18.9415,10.9359 l -0.0000,21.8717 l 18.9415,10.9359 Z"/></g><g fill="rgb(0,0,0)" stroke="rgb(0,0,0)" stroke-linecap="butt" stroke-width="1.183127221353529" stroke-miterlimit="10.0" fill-opacity="0.0" stroke-opacity="1.0" stroke-linejoin="miter"><path d="M 248.4683,164.0379 l 0.0000,-21.8717 l -18.9415,-10.9359 l -18.9415,10.9359 l -0.0000,21.8717 l 18.9415,10.9359 Z"/></g><g fill="rgb(0,0,0)" stroke="rgb(0,0,0)" stroke-linecap="butt" stroke-width="1.183127221353529" stroke-miterlimit="10.0" fill-opacity="0.0" stroke-opacity="1.0" stroke-linejoin="miter"><path d="M 210.5854,164.0379 l 0.0000,-21.8717 l -18.9415,-10.9359 l -18.9415,10.9359 l -0.0000,21.8717 l 18.9415,10.9359 Z"/></g><g fill="rgb(0,0,0)" stroke="rgb(0,0,0)" stroke-linecap="butt" stroke-width="1.183127221353529" stroke-miterlimit="10.0" fill-opacity="0.0" stroke-opacity="1.0" stroke-linejoin="miter"><path d="M 172.7024,164.0379 l 0.0000,-21.8717 l -18.9415,-10.9359 l -18.9415,10.9359 l -0.0000,21.8717 l 18.9415,10.9359 Z"/></g><g fill="rgb(0,0,0)" stroke="rgb(0,0,0)" stroke-linecap="butt" stroke-width="1.183127221353529" stroke-miterlimit="10.0" fill-opacity="0.0" stroke-opacity="1.0" stroke-linejoin="miter"><path d="M 134.8195,164.0379 l 0.0000,-21.8717 l -18.9415,-10.9359 l -18.9415,10.9359 l -0.0000,21.8717 l 18.9415,10.9359 Z"/></g><g fill="rgb(0,0,0)" stroke="rgb(0,0,0)" stroke-linecap="butt" stroke-width="1.183127221353529" stroke-miterlimit="10.0" fill-opacity="0.0" stroke-opacity="1.0" stroke-linejoin="miter"><path d="M 96.9366,164.0379 l 0.0000,-21.8717 l -18.9415,-10.9359 l -18.9415,10.9359 l -0.0000,21.8717 l 18.9415,10.9359 Z"/></g><g fill="rgb(0,0,0)" stroke="rgb(0,0,0)" stroke-linecap="butt" stroke-width="1.183127221353529" stroke-miterlimit="10.0" fill-opacity="0.0" stroke-opacity="1.0" stroke-linejoin="miter"><path d="M 380.3155,120.2945 l 0.0000,-21.8717 l -18.9415,-10.9359 l -18.9415,10.9359 l -0.0000,21.8717 l 18.9415,10.9359 Z"/></g><g fill="rgb(0,0,0)" stroke="rgb(0,0,0)" stroke-linecap="butt" stroke-width="1.183127221353529" stroke-miterlimit="10.0" fill-opacity="0.0" stroke-opacity="1.0" stroke-linejoin="miter"><path d="M 342.4325,120.2945 l 0.0000,-21.8717 l -18.9415,-10.9359 l -18.9415,10.9359 l -0.0000,21.8717 l 18.9415,10.9359 Z"/></g><g fill="rgb(0,0,0)" stroke="rgb(0,0,0)" stroke-linecap="butt" stroke-width="1.183127221353529" stroke-miterlimit="10.0" fill-opacity="0.0" stroke-opacity="1.0" stroke-linejoin="miter"><path d="M 304.5496,120.2945 l 0.0000,-21.8717 l -18.9415,-10.9359 l -18.9415,10.9359 l -0.0000,21.8717 l 18.9415,10.9359 Z"/></g><g fill="rgb(0,0,0)" stroke="rgb(0,0,0)" stroke-linecap="butt" stroke-width="1.183127221353529" stroke-miterlimit="10.0" fill-opacity="0.0" stroke-opacity="1.0" stroke-linejoin="miter"><path d="M 266.6667,120.2945 l 0.0000,-21.8717 l -18.9415,-10.9359 l -18.9415,10.9359 l -0.0000,21.8717 l 18.9415,10.9359 Z"/></g><g fill="rgb(0,0,0)" stroke="rgb(0,0,0)" stroke-linecap="butt" stroke-width="1.183127221353529" stroke-miterlimit="10.0" fill-opacity="0.0" stroke-opacity="1.0" stroke-linejoin="miter"><path d="M 228.7837,120.2945 l 0.0000,-21.8717 l -18.9415,-10.9359 l -18.9415,10.9359 l -0.0000,21.8717 l 18.9415,10.9359 Z"/></g><g fill="rgb(0,0,0)" stroke="rgb(0,0,0)" stroke-linecap="butt" stroke-width="1.183127221353529" stroke-miterlimit="10.0" fill-opacity="0.0" stroke-opacity="1.0" stroke-linejoin="miter"><path d="M 190.9008,120.2945 l 0.0000,-21.8717 l -18.9415,-10.9359 l -18.9415,10.9359 l -0.0000,21.8717 l 18.9415,10.9359 Z"/></g><g fill="rgb(0,0,0)" stroke="rgb(0,0,0)" stroke-linecap="butt" stroke-width="1.183127221353529" stroke-miterlimit="10.0" fill-opacity="0.0" stroke-opacity="1.0" stroke-linejoin="miter"><path d="M 153.0179,120.2945 l 0.0000,-21.8717 l -18.9415,-10.9359 l -18.9415,10.9359 l -0.0000,21.8717 l 18.9415,10.9359 Z"/></g><g fill="rgb(0,0,0)" stroke="rgb(0,0,0)" stroke-linecap="butt" stroke-width="1.183127221353529" stroke-miterlimit="10.0" fill-opacity="0.0" stroke-opacity="1.0" stroke-linejoin="miter"><path d="M 115.1350,120.2945 l 0.0000,-21.8717 l -18.9415,-10.9359 l -18.9415,10.9359 l -0.0000,21.8717 l 18.9415,10.9359 Z"/></g><g fill="rgb(0,0,0)" stroke="rgb(0,0,0)" stroke-linecap="butt" stroke-width="1.183127221353529" stroke-miterlimit="10.0" fill-opacity="0.0" stroke-opacity="1.0" stroke-linejoin="miter"><path d="M 77.2520,120.2945 l 0.0000,-21.8717 l -18.9415,-10.9359 l -18.9415,10.9359 l -0.0000,21.8717 l 18.9415,10.9359 Z"/></g><g fill="rgb(0,0,0)" stroke="rgb(0,0,0)" stroke-linecap="butt" stroke-width="1.183127221353529" stroke-miterlimit="10.0" fill-opacity="0.0" stroke-opacity="1.0" stroke-linejoin="miter"><path d="M 360.6309,76.5510 l 0.0000,-21.8717 l -18.9415,-10.9359 l -18.9415,10.9359 l -0.0000,21.8717 l 18.9415,10.9359 Z"/></g><g fill="rgb(0,0,0)" stroke="rgb(0,0,0)" stroke-linecap="butt" stroke-width="1.183127221353529" stroke-miterlimit="10.0" fill-opacity="0.0" stroke-opacity="1.0" stroke-linejoin="miter"><path d="M 322.7480,76.5510 l 0.0000,-21.8717 l -18.9415,-10.9359 l -18.9415,10.9359 l -0.0000,21.8717 l 18.9415,10.9359 Z"/></g><g fill="rgb(0,0,0)" stroke="rgb(0,0,0)" stroke-linecap="butt" stroke-width="1.183127221353529" stroke-miterlimit="10.0" fill-opacity="0.0" stroke-opacity="1.0" stroke-linejoin="miter"><path d="M 284.8650,76.5510 l 0.0000,-21.8717 l -18.9415,-10.9359 l -18.9415,10.9359 l -0.0000,21.8717 l 18.9415,10.9359 Z"/></g><g fill="rgb(0,0,0)" stroke="rgb(0,0,0)" stroke-linecap="butt" stroke-width="1.183127221353529" stroke-miterlimit="10.0" fill-opacity="0.0" stroke-opacity="1.0" stroke-linejoin="miter"><path d="M 246.9821,76.5510 l 0.0000,-21.8717 l -18.9415,-10.9359 l -18.9415,10.9359 l -0.0000,21.8717 l 18.9415,10.9359 Z"/></g><g fill="rgb(0,0,0)" stroke="rgb(0,0,0)" stroke-linecap="butt" stroke-width="1.183127221353529" stroke-miterlimit="10.0" fill-opacity="0.0" stroke-opacity="1.0" stroke-linejoin="miter"><path d="M 209.0992,76.5510 l 0.0000,-21.8717 l -18.9415,-10.9359 l -18.9415,10.9359 l -0.0000,21.8717 l 18.9415,10.9359 Z"/></g><g fill="rgb(0,0,0)" stroke="rgb(0,0,0)" stroke-linecap="butt" stroke-width="1.183127221353529" stroke-miterlimit="10.0" fill-opacity="0.0" stroke-opacity="1.0" stroke-linejoin="miter"><path d="M 171.2163,76.5510 l 0.0000,-21.8717 l -18.9415,-10.9359 l -18.9415,10.9359 l -0.0000,21.8717 l 18.9415,10.9359 Z"/></g><g fill="rgb(0,0,0)" stroke="rgb(0,0,0)" stroke-linecap="butt" stroke-width="1.183127221353529" stroke-miterlimit="10.0" fill-opacity="0.0" stroke-opacity="1.0" stroke-linejoin="miter"><path d="M 133.3333,76.5510 l 0.0000,-21.8717 l -18.9415,-10.9359 l -18.9415,10.9359 l -0.0000,21.8717 l 18.9415,10.9359 Z"/></g><g fill="rgb(0,0,0)" stroke="rgb(0,0,0)" stroke-linecap="butt" stroke-width="1.183127221353529" stroke-miterlimit="10.0" fill-opacity="0.0" stroke-opacity="1.0" stroke-linejoin="miter"><path d="M 95.4504,76.5510 l 0.0000,-21.8717 l -18.9415,-10.9359 l -18.9415,10.9359 l -0.0000,21.8717 l 18.9415,10.9359 Z"/></g><g fill="rgb(0,0,0)" stroke="rgb(0,0,0)" stroke-linecap="butt" stroke-width="1.183127221353529" stroke-miterlimit="10.0" fill-opacity="0.0" stroke-opacity="1.0" stroke-linejoin="miter"><path d="M 57.5675,76.5510 l 0.0000,-21.8717 l -18.9415,-10.9359 l -18.9415,10.9359 l -0.0000,21.8717 l 18.9415,10.9359 Z"/></g><g fill="rgb(0,0,0)" stroke="rgb(0,0,0)" stroke-linecap="butt" stroke-width="1.183127221353529" stroke-miterlimit="10.0" fill-opacity="0.0" stroke-opacity="1.0" stroke-linejoin="miter"><path d="M 340.9464,32.8076 l 0.0000,-21.8717 l -18.9415,-10.9359 l -18.9415,10.9359 l -0.0000,21.8717 l 18.9415,10.9359 Z"/></g><g fill="rgb(0,0,0)" stroke="rgb(0,0,0)" stroke-linecap="butt" stroke-width="1.183127221353529" stroke-miterlimit="10.0" fill-opacity="0.0" stroke-opacity="1.0" stroke-linejoin="miter"><path d="M 303.0634,32.8076 l 0.0000,-21.8717 l -18.9415,-10.9359 l -18.9415,10.9359 l -0.0000,21.8717 l 18.9415,10.9359 Z"/></g><g fill="rgb(0,0,0)" stroke="rgb(0,0,0)" stroke-linecap="butt" stroke-width="1.183127221353529" stroke-miterlimit="10.0" fill-opacity="0.0" stroke-opacity="1.0" stroke-linejoin="miter"><path d="M 265.1805,32.8076 l 0.0000,-21.8717 l -18.9415,-10.9359 l -18.9415,10.9359 l -0.0000,21.8717 l 18.9415,10.9359 Z"/></g><g fill="rgb(0,0,0)" stroke="rgb(0,0,0)" stroke-linecap="butt" stroke-width="1.183127221353529" stroke-miterlimit="10.0" fill-opacity="0.0" stroke-opacity="1.0" stroke-linejoin="miter"><path d="M 227.2976,32.8076 l 0.0000,-21.8717 l -18.9415,-10.9359 l -18.9415,10.9359 l -0.0000,21.8717 l 18.9415,10.9359 Z"/></g><g fill="rgb(0,0,0)" stroke="rgb(0,0,0)" stroke-linecap="butt" stroke-width="1.183127221353529" stroke-miterlimit="10.0" fill-opacity="0.0" stroke-opacity="1.0" stroke-linejoin="miter"><path d="M 189.4146,32.8076 l 0.0000,-21.8717 l -18.9415,-10.9359 l -18.9415,10.9359 l -0.0000,21.8717 l 18.9415,10.9359 Z"/></g><g fill="rgb(0,0,0)" stroke="rgb(0,0,0)" stroke-linecap="butt" stroke-width="1.183127221353529" stroke-miterlimit="10.0" fill-opacity="0.0" stroke-opacity="1.0" stroke-linejoin="miter"><path d="M 151.5317,32.8076 l 0.0000,-21.8717 l -18.9415,-10.9359 l -18.9415,10.9359 l -0.0000,21.8717 l 18.9415,10.9359 Z"/></g><g fill="rgb(0,0,0)" stroke="rgb(0,0,0)" stroke-linecap="butt" stroke-width="1.183127221353529" stroke-miterlimit="10.0" fill-opacity="0.0" stroke-opacity="1.0" stroke-linejoin="miter"><path d="M 113.6488,32.8076 l 0.0000,-21.8717 l -18.9415,-10.9359 l -18.9415,10.9359 l -0.0000,21.8717 l 18.9415,10.9359 Z"/></g><g fill="rgb(0,0,0)" stroke="rgb(0,0,0)" stroke-linecap="butt" stroke-width="1.183127221353529" stroke-miterlimit="10.0" fill-opacity="0.0" stroke-opacity="1.0" stroke-linejoin="miter"><path d="M 75.7659,32.8076 l 0.0000,-21.8717 l -18.9415,-10.9359 l -18.9415,10.9359 l -0.0000,21.8717 l 18.9415,10.9359 Z"/></g><g fill="rgb(0,0,0)" stroke="rgb(0,0,0)" stroke-linecap="butt" stroke-width="1.183127221353529" stroke-miterlimit="10.0" fill-opacity="0.0" stroke-opacity="1.0" stroke-linejoin="miter"><path d="M 37.8829,32.8076 l 0.0000,-21.8717 l -18.9415,-10.9359 l -18.9415,10.9359 l -0.0000,21.8717 l 18.9415,10.9359 Z"/></g></svg>