<?xml version="1.0" encoding="UTF-8"?>
<!DOCTYPE svg PUBLIC "-//W3C//DTD SVG 1.1//EN"
    "http://www.w3.org/Graphics/SVG/1.1/DTD/svg11.dtd"><svg stroke="rgb(0,0,0)" xmlns="http://www.w3.org/2000/svg" font-size="1" width="400.0000" stroke-opacity="1" xmlns:xlink="http://www.w3.org/1999/xlink" viewBox="0.0 0.0 400.0 179.6520173304601" height="179.6520" version="1.1"><defs></defs><g fill="rgb(0,0,0)" stroke="rgb(0,0,0)" stroke-linecap="butt" stroke-width="1.0722746434169488" stroke-miterlimit="10.0" fill-opacity="0.0" stroke-opacity="1.0" stroke-linejoin="miter"><path d="M 113.8688,33.0243 l 0.0000,-22.0162 l -19.0666,-11.0081 l -19.0666,11.0081 l -0.0000,22.0162 l 19.0666,11.0081 Z"/></g><g fill="rgb(0,0,0)" stroke="rgb(0,0,0)" stroke-linecap="butt" stroke-width="1.0722746434169488" stroke-miterlimit="10.0" fill-opacity="0.0" stroke-opacity="1.0" stroke-linejoin="miter"><path d="M 400.0000,66.9292 l 0.0000,-22.0162 l -19.0666,-11.0081 l -19.0666,11.0081 l -0.0000,22.0162 l 19.0666,11.0081 Z"/></g><g fill="rgb(0,0,0)" stroke="rgb(0,0,0)" stroke-linecap="butt" stroke-width="1.0722746434169488" stroke-miterlimit="10.0" fill-opacity="0.0" stroke-opacity="1.0" stroke-linejoin="miter"><path d="M 361.8669,66.9292 l 0.0000,-22.0162 l -19.0666,-11.0081 l -19.0666,11.0081 l -0.0000,22.0162 l 19.0666,11.0081 Z"/></g><g fill="rgb(0,0,0)" stroke="rgb(0,0,0)" stroke-linecap="butt" stroke-width="1.0722746434169488" stroke-miterlimit="10.0" fill-opacity="0.0" stroke-opacity="1.0" stroke-linejoin="miter"><path d="M 323.7337,66.9292 l 0.0000,-22.0162 l -19.0666,-11.0081 l -19.0666,11.0081 l -0.0000,22.0162 l 19.0666,11.0081 Z"/></g><g fill="rgb(0,0,0)" stroke="rgb(0,0,0)" stroke-linecap="butt" stroke-width="1.0722746434169488" stroke-miterlimit="10.0" fill-opacity="0.0" stroke-opacity="1.0" stroke-linejoin="miter"><path d="M 285.6006,66.9292 l 0.0000,-22.0162 l -19.0666,-11.0081 l -19.0666,11.0081 l -0.0000,22.0162 l 19.0666,11.0081 Z"/></g><g fill="rgb(0,0,0)" stroke="rgb(0,0,0)" stroke-linecap="butt" stroke-width="1.0722746434169488" stroke-miterlimit="10.0" fill-opacity="0.0" stroke-opacity="1.0" stroke-linejoin="miter"><path d="M 247.4674,66.9292 l 0.0000,-22.0162 l -19.0666,-11.0081 l -19.0666,11.0081 l -0.0000,22.0162 l 19.0666,11.0081 Z"/></g><g fill="rgb(0,0,0)" stroke="rgb(0,0,0)" stroke-linecap="butt" stroke-width="1.0722746434169488" stroke-miterlimit="10.0" fill-opacity="0.0" stroke-opacity="1.0" stroke-linejoin="miter"><path d="M 209.3343,66.9292 l 0.0000,-22.0162 l -19.0666,-11.0081 l -19.0666,11.0081 l -0.0000,22.0162 l 19.0666,11.0081 Z"/></g><g fill="rgb(0,0,0)" stroke="rgb(0,0,0)" stroke-linecap="butt" stroke-width="1.0722746434169488" stroke-miterlimit="10.0" fill-opacity="0.0" stroke-opacity="1.0" stroke-linejoin="miter"><path d="M 171.2012,66.9292 l 0.0000,-22.0162 l -19.0666,-11.0081 l -19.0666,11.0081 l -0.0000,22.0162 l 19.0666,11.0081 Z"/></g><g fill="rgb(0,0,0)" stroke="rgb(0,0,0)" stroke-linecap="butt" stroke-width="1.0722746434169488" stroke-miterlimit="10.0" fill-opacity="0.0" stroke-opacity="1.0" stroke-linejoin="miter"><path d="M 133.0680,66.9292 l 0.0000,-22.0162 l -19.0666,-11.0081 l -19.0666,11.0081 l -0.0000,22.0162 l 19.0666,11.0081 Z"/></g><g fill="rgb(0,0,0)" stroke="rgb(0,0,0)" stroke-linecap="butt" stroke-width="1.0722746434169488" stroke-miterlimit="10.0" fill-opacity="0.0" stroke-opacity="1.0" stroke-linejoin="miter"><path d="M 94.9349,66.9292 l 0.0000,-22.0162 l -19.0666,-11.0081 l -19.0666,11.0081 l -0.0000,22.0162 l 19.0666,11.0081 Z"/></g><g fill="rgb(0,0,0)" stroke="rgb(0,0,0)" stroke-linecap="butt" stroke-width="1.0722746434169488" stroke-miterlimit="10.0" fill-opacity="0.0" stroke-opacity="1.0" stroke-linejoin="miter"><path d="M 381.0661,100.8341 l 0.0000,-22.0162 l -19.0666,-11.0081 l -19.0666,11.0081 l -0.0000,22.0162 l 19.0666,11.0081 Z"/></g><g fill="rgb(0,0,0)" stroke="rgb(0,0,0)" stroke-linecap="butt" stroke-width="1.0722746434169488" stroke-miterlimit="10.0" fill-opacity="0.0" stroke-opacity="1.0" stroke-linejoin="miter"><path d="M 342.9329,100.8341 l 0.0000,-22.0162 l -19.0666,-11.0081 l -19.0666,11.0081 l -0.0000,22.0162 l 19.0666,11.0081 Z"/></g><g fill="rgb(0,0,0)" stroke="rgb(0,0,0)" stroke-linecap="butt" stroke-width="1.0722746434169488" stroke-miterlimit="10.0" fill-opacity="0.0" stroke-opacity="1.0" stroke-linejoin="miter"><path d="M 304.7998,100.8341 l 0.0000,-22.0162 l -19.0666,-11.0081 l -19.0666,11.0081 l -0.0000,22.0162 l 19.0666,11.0081 Z"/></g><g fill="rgb(0,0,0)" stroke="rgb(0,0,0)" stroke-linecap="butt" stroke-width="1.0722746434169488" stroke-miterlimit="10.0" fill-opacity="0.0" stroke-opacity="1.0" stroke-linejoin="miter"><path d="M 266.6667,100.8341 l 0.0000,-22.0162 l -19.0666,-11.0081 l -19.0666,11.0081 l -0.0000,22.0162 l 19.0666,11.0081 Z"/></g><g fill="rgb(0,0,0)" stroke="rgb(0,0,0)" stroke-linecap="butt" stroke-width="1.0722746434169488" stroke-miterlimit="10.0" fill-opacity="0.0" stroke-opacity="1.0" stroke-linejoin="miter"><path d="M 228.5335,100.8341 l 0.0000,-22.0162 l -19.0666,-11.0081 l -19.0666,11.0081 l -0.0000,22.0162 l 19.0666,11.0081 Z"/></g><g fill="rgb(0,0,0)" stroke="rgb(0,0,0)" stroke-linecap="butt" stroke-width="1.0722746434169488" stroke-miterlimit="10.0" fill-opacity="0.0" stroke-opacity="1.0" stroke-linejoin="miter"><path d="M 190.4004,100.8341 l 0.0000,-22.0162 l -19.0666,-11.0081 l -19.0666,11.0081 l -0.0000,22.0162 l 19.0666,11.0081 Z"/></g><g fill="rgb(0,0,0)" stroke="rgb(0,0,0)" stroke-linecap="butt" stroke-width="1.0722746434169488" stroke-miterlimit="10.0" fill-opacity="0.0" stroke-opacity="1.0" stroke-linejoin="miter"><path d="M 152.2672,100.8341 l 0.0000,-22.0162 l -19.0666,-11.0081 l -19.0666,11.0081 l -0.0000,22.0162 l 19.0666,11.0081 Z"/></g><g fill="rgb(0,0,0)" stroke="rgb(0,0,0)" stroke-linecap="butt" stroke-width="1.0722746434169488" stroke-miterlimit="10.0" fill-opacity="0.0" stroke-opacity="1.0" stroke-linejoin="miter"><path d="M 114.1341,100.8341 l 0.0000,-22.0162 l -19.0666,-11.0081 l -19.0666,11.0081 l -0.0000,22.0162 l 19.0666,11.0081 Z"/></g><g fill="rgb(0,0,0)" stroke="rgb(0,0,0)" stroke-linecap="butt" stroke-width="1.0722746434169488" stroke-miterlimit="10.0" fill-opacity="0.0" stroke-opacity="1.0" stroke-linejoin="miter"><path d="M 76.0010,100.8341 l 0.0000,-22.0162 l -19.0666,-11.0081 l -19.0666,11.0081 l -0.0000,22.0162 l 19.0666,11.0081 Z"/></g><g fill="rgb(0,0,0)" stroke="rgb(0,0,0)" stroke-linecap="butt" stroke-width="1.0722746434169488" stroke-miterlimit="10.0" fill-opacity="0.0" stroke-opacity="1.0" stroke-linejoin="miter"><path d="M 362.1322,134.7390 l 0.0000,-22.0162 l -19.0666,-11.0081 l -19.0666,11.0081 l -0.0000,22.0162 l 19.0666,11.0081 Z"/></g><g fill="rgb(0,0,0)" stroke="rgb(0,0,0)" stroke-linecap="butt" stroke-width="1.0722746434169488" stroke-miterlimit="10.0" fill-opacity="0.0" stroke-opacity="1.0" stroke-linejoin="miter"><path d="M 323.9990,134.7390 l 0.0000,-22.0162 l -19.0666,-11.0081 l -19.0666,11.0081 l -0.0000,22.0162 l 19.0666,11.0081 Z"/></g><g fill="rgb(0,0,0)" stroke="rgb(0,0,0)" stroke-linecap="butt" stroke-width="1.0722746434169488" stroke-miterlimit="10.0" fill-opacity="0.0" stroke-opacity="1.0" stroke-linejoin="miter"><path d="M 285.8659,134.7390 l 0.0000,-22.0162 l -19.0666,-11.0081 l -19.0666,11.0081 l -0.0000,22.0162 l 19.0666,11.0081 Z"/></g><g fill="rgb(0,0,0)" stroke="rgb(0,0,0)" stroke-linecap="butt" stroke-width="1.0722746434169488" stroke-miterlimit="10.0" fill-opacity="0.0" stroke-opacity="1.0" stroke-linejoin="miter"><path d="M 247.7328,134.7390 l 0.0000,-22.0162 l -19.0666,-11.0081 l -19.0666,11.0081 l -0.0000,22.0162 l 19.0666,11.0081 Z"/></g><g fill="rgb(0,0,0)" stroke="rgb(0,0,0)" stroke-linecap="butt" stroke-width="1.0722746434169488" stroke-miterlimit="10.0" fill-opacity="0.0" stroke-opacity="1.0" stroke-linejoin="miter"><path d="M 209.5996,134.7390 l 0.0000,-22.0162 l -19.0666,-11.0081 l -19.0666,11.0081 l -0.0000,22.0162 l 19.0666,11.0081 Z"/></g><g fill="rgb(0,0,0)" stroke="rgb(0,0,0)" stroke-linecap="butt" stroke-width="1.0722746434169488" stroke-miterlimit="10.0" fill-opacity="0.0" stroke-opacity="1.0" stroke-linejoin="miter"><path d="M 171.4665,134.7390 l 0.0000,-22.0162 l -19.0666,-11.0081 l -19.0666,11.0081 l -0.0000,22.0162 l 19.0666,11.0081 Z"/></g><g fill="rgb(0,0,0)" stroke="rgb(0,0,0)" stroke-linecap="butt" stroke-width="1.0722746434169488" stroke-miterlimit="10.0" fill-opacity="0.0" stroke-opacity="1.0" stroke-linejoin="miter"><path d="M 133.3333,134.7390 l 0.0000,-22.0162 l -19.0666,-11.0081 l -19.0666,11.0081 l -0.0000,22.0162 l 19.0666,11.0081 Z"/></g><g fill="rgb(0,0,0)" stroke="rgb(0,0,0)" stroke-linecap="butt" stroke-width="1.0722746434169488" stroke-miterlimit="10.0" fill-opacity="0.0" stroke-opacity="1.0" stroke-linejoin="miter"><path d="M 95.2002,134.7390 l 0.0000,-22.0162 l -19.0666,-11.0081 l -19.0666,11.0081 l -0.0000,22.0162 l 19.0666,11.0081 Z"/></g><g fill="rgb(0,0,0)" stroke="rgb(0,0,0)" stroke-linecap="butt" stroke-width="1.0722746434169488" stroke-miterlimit="10.0" fill-opacity="0.0" stroke-opacity="1.0" stroke-linejoin="miter"><path d="M 57.0671,134.7390 l 0.0000,-22.0162 l -19.0666,-11.0081 l -19.0666,11.0081 l -0.0000,22.0162 l 19.0666,11.0081 Z"/></g><g fill="rgb(0,0,0)" stroke="rgb(0,0,0)" stroke-linecap="butt" stroke-width="1.0722746434169488" stroke-miterlimit="10.0" fill-opacity="0.0" stroke-opacity="1.0" stroke-linejoin="miter"><path d="M 343.1983,168.6439 l 0.0000,-22.0162 l -19.0666,-11.0081 l -19.0666,11.0081 l -0.0000,22.0162 l 19.0666,11.0081 Z"/></g><g fill="rgb(0,0,0)" stroke="rgb(0,0,0)" stroke-linecap="butt" stroke-width="1.0722746434169488" stroke-miterlimit="10.0" fill-opacity="0.0" stroke-opacity="1.0" stroke-linejoin="miter"><path d="M 305.0651,168.6439 l 0.0000,-22.0162 l -19.0666,-11.0081 l -19.0666,11.0081 l -0.0000,22.0162 l 19.0666,11.0081 Z"/></g><g fill="rgb(0,0,0)" stroke="rgb(0,0,0)" stroke-linecap="butt" stroke-width="1.0722746434169488" stroke-miterlimit="10.0" fill-opacity="0.0" stroke-opacity="1.0" stroke-linejoin="miter"><path d="M 266.9320,168.6439 l 0.0000,-22.0162 l -19.0666,-11.0081 l -19.0666,11.0081 l -0.0000,22.0162 l 19.0666,11.0081 Z"/></g><g fill="rgb(0,0,0)" stroke="rgb(0,0,0)" stroke-linecap="butt" stroke-width="1.0722746434169488" stroke-miterlimit="10.0" fill-opacity="0.0" stroke-opacity="1.0" stroke-linejoin="miter"><path d="M 228.7988,168.6439 l 0.0000,-22.0162 l -19.0666,-11.0081 l -19.0666,11.0081 l -0.0000,22.0162 l 19.0666,11.0081 Z"/></g><g fill="rgb(0,0,0)" stroke="rgb(0,0,0)" stroke-linecap="butt" stroke-width="1.0722746434169488" stroke-miterlimit="10.0" fill-opacity="0.0" stroke-opacity="1.0" stroke-linejoin="miter"><path d="M 190.6657,168.6439 l 0.0000,-22.0162 l -19.0666,-11.0081 l -19.0666,11.0081 l -0.0000,22.0162 l 19.0666,11.0081 Z"/></g><g fill="rgb(0,0,0)" stroke="rgb(0,0,0)" stroke-linecap="butt" stroke-width="1.0722746434169488" stroke-miterlimit="10.0" fill-opacity="0.0" stroke-opacity="1.0" stroke-linejoin="miter"><path d="M 152.5326,168.6439 l 0.0000,-22.0162 l -19.0666,-11.0081 l -19.0666,11.0081 l -0.0000,22.0162 l 19.0666,11.0081 Z"/></g><g fill="rgb(0,0,0)" stroke="rgb(0,0,0)" stroke-linecap="butt" stroke-width="1.0722746434169488" stroke-miterlimit="10.0" fill-opacity="0.0" stroke-opacity="1.0" stroke-linejoin="miter"><path d="M 114.3994,168.6439 l 0.0000,-22.0162 l -19.0666,-11.0081 l -19.0666,11.0081 l -0.0000,22.0162 l 19.0666,11.0081 Z"/></g><g fill="rgb(0,0,0)" stroke="rgb(0,0,0)" stroke-linecap="butt" stroke-width="1.0722746434169488" stroke-miterlimit="10.0" fill-opacity="0.0" stroke-opacity="1.0" stroke-linejoin="miter"><path d="M 76.2663,168.6439 l 0.0000,-22.0162 l -19.0666,-11.0081 l -19.0666,11.0081 l -0.0000,22.0162 l 19.0666,11.0081 Z"/></g><g fill="rgb(0,0,0)" stroke="rgb(0,0,0)" stroke-linecap="butt" stroke-width="1.0722746434169488" stroke-miterlimit="10.0" fill-opacity="0.0" stroke-opacity="1.0" stroke-linejoin="miter"><path d="M 38.1331,168.6439 l 0.0000,-22.0162 l -19.0666,-11.0081 l -19.0666,11.0081 l -0.0000,22.0162 l 19.0666,11.0081 Z"/></g></svg>