<?xml version="1.0" encoding="UTF-8"?>
<!DOCTYPE svg PUBLIC "-//W3C//DTD SVG 1.1//EN"
    "http://www.w3.org/Graphics/SVG/1.1/DTD/svg11.dtd"><svg viewBox="0.0 0.0 400.0 454.30692380181864" xmlns:xlink="http://www.w3.org/1999/xlink" xmlns="http://www.w3.org/2000/svg" width="400.0000" stroke="rgb(0,0,0)" font-size="1" stroke-opacity="1" height="454.3069" version="1.1"><defs></defs><g stroke-width="1.7051581487743708" stroke-linejoin="miter" fill-opacity="0.0" stroke="rgb(0,0,0)" stroke-opacity="1.0" fill="rgb(0,0,0)" stroke-linecap="butt" stroke-miterlimit="10.0"><path d="M 61.3572,-19.1961 Z"/></g><g stroke-width="1.7051581487743708" stroke-linejoin="miter" fill-opacity="0.0" stroke="rgb(0,0,0)" stroke-opacity="1.0" fill="rgb(0,0,0)" stroke-linecap="butt" stroke-miterlimit="10.0"><path d="M 338.6428,35.5483 Z"/></g><g stroke-width="1.7051581487743708" stroke-linejoin="miter" fill-opacity="0.0" stroke="rgb(0,0,0)" stroke-opacity="1.0" fill="rgb(0,0,0)" stroke-linecap="butt" stroke-miterlimit="10.0"><path d="M 369.4285,53.3224 l 0.0000,-35.5483 l -30.7857,-17.7741 l -30.7857,17.7741 l -0.0000,35.5483 l 30.7857,17.7741 Z"/></g><g stroke-width="1.7051581487743708" stroke-linejoin="miter" fill-opacity="1.0" stroke="rgb(0,0,0)" font-size="7.109654519590278px" stroke-opacity="1.0" fill="rgb(0,0,0)" stroke-linecap="butt" stroke-miterlimit="10.0"><text transform="matrix(1.0000,0.0000,0.0000,1.0000,338.6428,35.5483)" text-anchor="middle" stroke="none" dominant-baseline="middle">48</text></g><g stroke-width="1.7051581487743708" stroke-linejoin="miter" fill-opacity="0.0" stroke="rgb(0,0,0)" stroke-opacity="1.0" fill="rgb(0,0,0)" stroke-linecap="butt" stroke-miterlimit="10.0"><path d="M 307.8571,53.3224 l 0.0000,-35.5483 l -30.7857,-17.7741 l -30.7857,17.7741 l -0.0000,35.5483 l 30.7857,17.7741 Z"/></g><g stroke-width="1.7051581487743708" stroke-linejoin="miter" fill-opacity="1.0" stroke="rgb(0,0,0)" font-size="7.109654519590278px" stroke-opacity="1.0" fill="rgb(0,0,0)" stroke-linecap="butt" stroke-miterlimit="10.0"><text transform="matrix(1.0000,0.0000,0.0000,1.0000,277.0714,35.5483)" text-anchor="middle" stroke="none" dominant-baseline="middle">47</text></g><g stroke-width="1.7051581487743708" stroke-linejoin="miter" fill-opacity="0.0" stroke="rgb(0,0,0)" stroke-opacity="1.0" fill="rgb(0,0,0)" stroke-linecap="butt" stroke-miterlimit="10.0"><path d="M 246.2857,53.3224 l 0.0000,-35.5483 l -30.7857,-17.7741 l -30.7857,17.7741 l -0.0000,35.5483 l 30.7857,17.7741 Z"/></g><g stroke-width="1.7051581487743708" stroke-linejoin="miter" fill-opacity="1.0" stroke="rgb(0,0,0)" font-size="7.109654519590278px" stroke-opacity="1.0" fill="rgb(0,0,0)" stroke-linecap="butt" stroke-miterlimit="10.0"><text transform="matrix(1.0000,0.0000,0.0000,1.0000,215.4999,35.5483)" text-anchor="middle" stroke="none" dominant-baseline="middle">46</text></g><g stroke-width="1.7051581487743708" stroke-linejoin="miter" fill-opacity="0.0" stroke="rgb(0,0,0)" stroke-opacity="1.0" fill="rgb(0,0,0)" stroke-linecap="butt" stroke-miterlimit="10.0"><path d="M 184.7142,53.3224 l 0.0000,-35.5483 l -30.7857,-17.7741 l -30.7857,17.7741 l -0.0000,35.5483 l 30.7857,17.7741 Z"/></g><g stroke-width="1.7051581487743708" stroke-linejoin="miter" fill-opacity="1.0" stroke="rgb(0,0,0)" font-size="7.109654519590278px" stroke-opacity="1.0" fill="rgb(0,0,0)" stroke-linecap="butt" stroke-miterlimit="10.0"><text transform="matrix(1.0000,0.0000,0.0000,1.0000,153.9285,35.5483)" text-anchor="middle" stroke="none" dominant-baseline="middle">45</text></g><g stroke-width="1.7051581487743708" stroke-linejoin="miter" fill-opacity="0.0" stroke="rgb(0,0,0)" stroke-opacity="1.0" fill="rgb(0,0,0)" stroke-linecap="butt" stroke-miterlimit="10.0"><path d="M 123.1428,53.3224 l 0.0000,-35.5483 l -30.7857,-17.7741 l -30.7857,17.7741 l -0.0000,35.5483 l 30.7857,17.7741 Z"/></g><g stroke-width="1.7051581487743708" stroke-linejoin="miter" fill-opacity="1.0" stroke="rgb(0,0,0)" font-size="7.109654519590278px" stroke-opacity="1.0" fill="rgb(0,0,0)" stroke-linecap="butt" stroke-miterlimit="10.0"><text transform="matrix(1.0000,0.0000,0.0000,1.0000,92.3571,35.5483)" text-anchor="middle" stroke="none" dominant-baseline="middle">44</text></g><g stroke-width="1.7051581487743708" stroke-linejoin="miter" fill-opacity="0.0" stroke="rgb(0,0,0)" stroke-opacity="1.0" fill="rgb(0,0,0)" stroke-linecap="butt" stroke-miterlimit="10.0"><path d="M 61.5714,53.3224 l 0.0000,-35.5483 l -30.7857,-17.7741 l -30.7857,17.7741 l -0.0000,35.5483 l 30.7857,17.7741 Z"/></g><g stroke-width="1.7051581487743708" stroke-linejoin="miter" fill-opacity="1.0" stroke="rgb(0,0,0)" font-size="7.109654519590278px" stroke-opacity="1.0" fill="rgb(0,0,0)" stroke-linecap="butt" stroke-miterlimit="10.0"><text transform="matrix(1.0000,0.0000,0.0000,1.0000,30.7857,35.5483)" text-anchor="middle" stroke="none" dominant-baseline="middle">43</text></g><g stroke-width="1.7051581487743708" stroke-linejoin="miter" fill-opacity="0.0" stroke="rgb(0,0,0)" stroke-opacity="1.0" fill="rgb(0,0,0)" stroke-linecap="butt" stroke-miterlimit="10.0"><path d="M 369.2143,90.2926 Z"/></g><g stroke-width="1.7051581487743708" stroke-linejoin="miter" fill-opacity="0.0" stroke="rgb(0,0,0)" stroke-opacity="1.0" fill="rgb(0,0,0)" stroke-linecap="butt" stroke-miterlimit="10.0"><path d="M 400.0000,108.0667 l 0.0000,-35.5483 l -30.7857,-17.7741 l -30.7857,17.7741 l -0.0000,35.5483 l 30.7857,17.7741 Z"/></g><g stroke-width="1.7051581487743708" stroke-linejoin="miter" fill-opacity="1.0" stroke="rgb(0,0,0)" font-size="7.109654519590278px" stroke-opacity="1.0" fill="rgb(0,0,0)" stroke-linecap="butt" stroke-miterlimit="10.0"><text transform="matrix(1.0000,0.0000,0.0000,1.0000,369.2143,90.2926)" text-anchor="middle" stroke="none" dominant-baseline="middle">42</text></g><g stroke-width="1.7051581487743708" stroke-linejoin="miter" fill-opacity="0.0" stroke="rgb(0,0,0)" stroke-opacity="1.0" fill="rgb(0,0,0)" stroke-linecap="butt" stroke-miterlimit="10.0"><path d="M 338.4286,108.0667 l 0.0000,-35.5483 l -30.7857,-17.7741 l -30.7857,17.7741 l -0.0000,35.5483 l 30.7857,17.7741 Z"/></g><g stroke-width="1.7051581487743708" stroke-linejoin="miter" fill-opacity="1.0" stroke="rgb(0,0,0)" font-size="7.109654519590278px" stroke-opacity="1.0" fill="rgb(0,0,0)" stroke-linecap="butt" stroke-miterlimit="10.0"><text transform="matrix(1.0000,0.0000,0.0000,1.0000,307.6429,90.2926)" text-anchor="middle" stroke="none" dominant-baseline="middle">41</text></g><g stroke-width="1.7051581487743708" stroke-linejoin="miter" fill-opacity="0.0" stroke="rgb(0,0,0)" stroke-opacity="1.0" fill="rgb(0,0,0)" stroke-linecap="butt" stroke-miterlimit="10.0"><path d="M 276.8572,108.0667 l 0.0000,-35.5483 l -30.7857,-17.7741 l -30.7857,17.7741 l -0.0000,35.5483 l 30.7857,17.7741 Z"/></g><g stroke-width="1.7051581487743708" stroke-linejoin="miter" fill-opacity="1.0" stroke="rgb(0,0,0)" font-size="7.109654519590278px" stroke-opacity="1.0" fill="rgb(0,0,0)" stroke-linecap="butt" stroke-miterlimit="10.0"><text transform="matrix(1.0000,0.0000,0.0000,1.0000,246.0715,90.2926)" text-anchor="middle" stroke="none" dominant-baseline="middle">40</text></g><g stroke-width="1.7051581487743708" stroke-linejoin="miter" fill-opacity="0.0" stroke="rgb(0,0,0)" stroke-opacity="1.0" fill="rgb(0,0,0)" stroke-linecap="butt" stroke-miterlimit="10.0"><path d="M 215.2858,108.0667 l 0.0000,-35.5483 l -30.7857,-17.7741 l -30.7857,17.7741 l -0.0000,35.5483 l 30.7857,17.7741 Z"/></g><g stroke-width="1.7051581487743708" stroke-linejoin="miter" fill-opacity="1.0" stroke="rgb(0,0,0)" font-size="7.109654519590278px" stroke-opacity="1.0" fill="rgb(0,0,0)" stroke-linecap="butt" stroke-miterlimit="10.0"><text transform="matrix(1.0000,0.0000,0.0000,1.0000,184.5001,90.2926)" text-anchor="middle" stroke="none" dominant-baseline="middle">39</text></g><g stroke-width="1.7051581487743708" stroke-linejoin="miter" fill-opacity="0.0" stroke="rgb(0,0,0)" stroke-opacity="1.0" fill="rgb(0,0,0)" stroke-linecap="butt" stroke-miterlimit="10.0"><path d="M 153.7143,108.0667 l 0.0000,-35.5483 l -30.7857,-17.7741 l -30.7857,17.7741 l -0.0000,35.5483 l 30.7857,17.7741 Z"/></g><g stroke-width="1.7051581487743708" stroke-linejoin="miter" fill-opacity="1.0" stroke="rgb(0,0,0)" font-size="7.109654519590278px" stroke-opacity="1.0" fill="rgb(0,0,0)" stroke-linecap="butt" stroke-miterlimit="10.0"><text transform="matrix(1.0000,0.0000,0.0000,1.0000,122.9286,90.2926)" text-anchor="middle" stroke="none" dominant-baseline="middle">38</text></g><g stroke-width="1.7051581487743708" stroke-linejoin="miter" fill-opacity="0.0" stroke="rgb(0,0,0)" stroke-opacity="1.0" fill="rgb(0,0,0)" stroke-linecap="butt" stroke-miterlimit="10.0"><path d="M 92.1429,108.0667 l 0.0000,-35.5483 l -30.7857,-17.7741 l -30.7857,17.7741 l -0.0000,35.5483 l 30.7857,17.7741 Z"/></g><g stroke-width="1.7051581487743708" stroke-linejoin="miter" fill-opacity="1.0" stroke="rgb(0,0,0)" font-size="7.109654519590278px" stroke-opacity="1.0" fill="rgb(0,0,0)" stroke-linecap="butt" stroke-miterlimit="10.0"><text transform="matrix(1.0000,0.0000,0.0000,1.0000,61.3572,90.2926)" text-anchor="middle" stroke="none" dominant-baseline="middle">37</text></g><g stroke-width="1.7051581487743708" stroke-linejoin="miter" fill-opacity="0.0" stroke="rgb(0,0,0)" stroke-opacity="1.0" fill="rgb(0,0,0)" stroke-linecap="butt" stroke-miterlimit="10.0"><path d="M 338.6428,145.0370 Z"/></g><g stroke-width="1.7051581487743708" stroke-linejoin="miter" fill-opacity="0.0" stroke="rgb(0,0,0)" stroke-opacity="1.0" fill="rgb(0,0,0)" stroke-linecap="butt" stroke-miterlimit="10.0"><path d="M 369.4285,162.8111 l 0.0000,-35.5483 l -30.7857,-17.7741 l -30.7857,17.7741 l -0.0000,35.5483 l 30.7857,17.7741 Z"/></g><g stroke-width="1.7051581487743708" stroke-linejoin="miter" fill-opacity="1.0" stroke="rgb(0,0,0)" font-size="7.109654519590278px" stroke-opacity="1.0" fill="rgb(0,0,0)" stroke-linecap="butt" stroke-miterlimit="10.0"><text transform="matrix(1.0000,0.0000,0.0000,1.0000,338.6428,145.0370)" text-anchor="middle" stroke="none" dominant-baseline="middle">36</text></g><g stroke-width="1.7051581487743708" stroke-linejoin="miter" fill-opacity="0.0" stroke="rgb(0,0,0)" stroke-opacity="1.0" fill="rgb(0,0,0)" stroke-linecap="butt" stroke-miterlimit="10.0"><path d="M 307.8571,162.8111 l 0.0000,-35.5483 l -30.7857,-17.7741 l -30.7857,17.7741 l -0.0000,35.5483 l 30.7857,17.7741 Z"/></g><g stroke-width="1.7051581487743708" stroke-linejoin="miter" fill-opacity="1.0" stroke="rgb(0,0,0)" font-size="7.109654519590278px" stroke-opacity="1.0" fill="rgb(0,0,0)" stroke-linecap="butt" stroke-miterlimit="10.0"><text transform="matrix(1.0000,0.0000,0.0000,1.0000,277.0714,145.0370)" text-anchor="middle" stroke="none" dominant-baseline="middle">35</text></g><g stroke-width="1.7051581487743708" stroke-linejoin="miter" fill-opacity="0.0" stroke="rgb(0,0,0)" stroke-opacity="1.0" fill="rgb(0,0,0)" stroke-linecap="butt" stroke-miterlimit="10.0"><path d="M 246.2857,162.8111 l 0.0000,-35.5483 l -30.7857,-17.7741 l -30.7857,17.7741 l -0.0000,35.5483 l 30.7857,17.7741 Z"/></g><g stroke-width="1.7051581487743708" stroke-linejoin="miter" fill-opacity="1.0" stroke="rgb(0,0,0)" font-size="7.109654519590278px" stroke-opacity="1.0" fill="rgb(0,0,0)" stroke-linecap="butt" stroke-miterlimit="10.0"><text transform="matrix(1.0000,0.0000,0.0000,1.0000,215.4999,145.0370)" text-anchor="middle" stroke="none" dominant-baseline="middle">34</text></g><g stroke-width="1.7051581487743708" stroke-linejoin="miter" fill-opacity="0.0" stroke="rgb(0,0,0)" stroke-opacity="1.0" fill="rgb(0,0,0)" stroke-linecap="butt" stroke-miterlimit="10.0"><path d="M 184.7142,162.8111 l 0.0000,-35.5483 l -30.7857,-17.7741 l -30.7857,17.7741 l -0.0000,35.5483 l 30.7857,17.7741 Z"/></g><g stroke-width="1.7051581487743708" stroke-linejoin="miter" fill-opacity="1.0" stroke="rgb(0,0,0)" font-size="7.109654519590278px" stroke-opacity="1.0" fill="rgb(0,0,0)" stroke-linecap="butt" stroke-miterlimit="10.0"><text transform="matrix(1.0000,0.0000,0.0000,1.0000,153.9285,145.0370)" text-anchor="middle" stroke="none" dominant-baseline="middle">33</text></g><g stroke-width="1.7051581487743708" stroke-linejoin="miter" fill-opacity="0.0" stroke="rgb(0,0,0)" stroke-opacity="1.0" fill="rgb(0,0,0)" stroke-linecap="butt" stroke-miterlimit="10.0"><path d="M 123.1428,162.8111 l 0.0000,-35.5483 l -30.7857,-17.7741 l -30.7857,17.7741 l -0.0000,35.5483 l 30.7857,17.7741 Z"/></g><g stroke-width="1.7051581487743708" stroke-linejoin="miter" fill-opacity="1.0" stroke="rgb(0,0,0)" font-size="7.109654519590278px" stroke-opacity="1.0" fill="rgb(0,0,0)" stroke-linecap="butt" stroke-miterlimit="10.0"><text transform="matrix(1.0000,0.0000,0.0000,1.0000,92.3571,145.0370)" text-anchor="middle" stroke="none" dominant-baseline="middle">32</text></g><g stroke-width="1.7051581487743708" stroke-linejoin="miter" fill-opacity="0.0" stroke="rgb(0,0,0)" stroke-opacity="1.0" fill="rgb(0,0,0)" stroke-linecap="butt" stroke-miterlimit="10.0"><path d="M 61.5714,162.8111 l 0.0000,-35.5483 l -30.7857,-17.7741 l -30.7857,17.7741 l -0.0000,35.5483 l 30.7857,17.7741 Z"/></g><g stroke-width="1.7051581487743708" stroke-linejoin="miter" fill-opacity="1.0" stroke="rgb(0,0,0)" font-size="7.109654519590278px" stroke-opacity="1.0" fill="rgb(0,0,0)" stroke-linecap="butt" stroke-miterlimit="10.0"><text transform="matrix(1.0000,0.0000,0.0000,1.0000,30.7857,145.0370)" text-anchor="middle" stroke="none" dominant-baseline="middle">31</text></g><g stroke-width="1.7051581487743708" stroke-linejoin="miter" fill-opacity="0.0" stroke="rgb(0,0,0)" stroke-opacity="1.0" fill="rgb(0,0,0)" stroke-linecap="butt" stroke-miterlimit="10.0"><path d="M 369.2143,199.7813 Z"/></g><g stroke-width="1.7051581487743708" stroke-linejoin="miter" fill-opacity="0.0" stroke="rgb(0,0,0)" stroke-opacity="1.0" fill="rgb(0,0,0)" stroke-linecap="butt" stroke-miterlimit="10.0"><path d="M 400.0000,217.5554 l 0.0000,-35.5483 l -30.7857,-17.7741 l -30.7857,17.7741 l -0.0000,35.5483 l 30.7857,17.7741 Z"/></g><g stroke-width="1.7051581487743708" stroke-linejoin="miter" fill-opacity="1.0" stroke="rgb(0,0,0)" font-size="7.109654519590278px" stroke-opacity="1.0" fill="rgb(0,0,0)" stroke-linecap="butt" stroke-miterlimit="10.0"><text transform="matrix(1.0000,0.0000,0.0000,1.0000,369.2143,199.7813)" text-anchor="middle" stroke="none" dominant-baseline="middle">30</text></g><g stroke-width="1.7051581487743708" stroke-linejoin="miter" fill-opacity="0.0" stroke="rgb(0,0,0)" stroke-opacity="1.0" fill="rgb(0,0,0)" stroke-linecap="butt" stroke-miterlimit="10.0"><path d="M 338.4286,217.5554 l 0.0000,-35.5483 l -30.7857,-17.7741 l -30.7857,17.7741 l -0.0000,35.5483 l 30.7857,17.7741 Z"/></g><g stroke-width="1.7051581487743708" stroke-linejoin="miter" fill-opacity="1.0" stroke="rgb(0,0,0)" font-size="7.109654519590278px" stroke-opacity="1.0" fill="rgb(0,0,0)" stroke-linecap="butt" stroke-miterlimit="10.0"><text transform="matrix(1.0000,0.0000,0.0000,1.0000,307.6429,199.7813)" text-anchor="middle" stroke="none" dominant-baseline="middle">29</text></g><g stroke-width="1.7051581487743708" stroke-linejoin="miter" fill-opacity="0.0" stroke="rgb(0,0,0)" stroke-opacity="1.0" fill="rgb(0,0,0)" stroke-linecap="butt" stroke-miterlimit="10.0"><path d="M 276.8572,217.5554 l 0.0000,-35.5483 l -30.7857,-17.7741 l -30.7857,17.7741 l -0.0000,35.5483 l 30.7857,17.7741 Z"/></g><g stroke-width="1.7051581487743708" stroke-linejoin="miter" fill-opacity="1.0" stroke="rgb(0,0,0)" font-size="7.109654519590278px" stroke-opacity="1.0" fill="rgb(0,0,0)" stroke-linecap="butt" stroke-miterlimit="10.0"><text transform="matrix(1.0000,0.0000,0.0000,1.0000,246.0715,199.7813)" text-anchor="middle" stroke="none" dominant-baseline="middle">28</text></g><g stroke-width="1.7051581487743708" stroke-linejoin="miter" fill-opacity="0.0" stroke="rgb(0,0,0)" stroke-opacity="1.0" fill="rgb(0,0,0)" stroke-linecap="butt" stroke-miterlimit="10.0"><path d="M 215.2858,217.5554 l 0.0000,-35.5483 l -30.7857,-17.7741 l -30.7857,17.7741 l -0.0000,35.5483 l 30.7857,17.7741 Z"/></g><g stroke-width="1.7051581487743708" stroke-linejoin="miter" fill-opacity="1.0" stroke="rgb(0,0,0)" font-size="7.109654519590278px" stroke-opacity="1.0" fill="rgb(0,0,0)" stroke-linecap="butt" stroke-miterlimit="10.0"><text transform="matrix(1.0000,0.0000,0.0000,1.0000,184.5001,199.7813)" text-anchor="middle" stroke="none" dominant-baseline="middle">27</text></g><g stroke-width="1.7051581487743708" stroke-linejoin="miter" fill-opacity="0.0" stroke="rgb(0,0,0)" stroke-opacity="1.0" fill="rgb(0,0,0)" stroke-linecap="butt" stroke-miterlimit="10.0"><path d="M 153.7143,217.5554 l 0.0000,-35.5483 l -30.7857,-17.7741 l -30.7857,17.7741 l -0.0000,35.5483 l 30.7857,17.7741 Z"/></g><g stroke-width="1.7051581487743708" stroke-linejoin="miter" fill-opacity="1.0" stroke="rgb(0,0,0)" font-size="7.109654519590278px" stroke-opacity="1.0" fill="rgb(0,0,0)" stroke-linecap="butt" stroke-miterlimit="10.0"><text transform="matrix(1.0000,0.0000,0.0000,1.0000,122.9286,199.7813)" text-anchor="middle" stroke="none" dominant-baseline="middle">26</text></g><g stroke-width="1.7051581487743708" stroke-linejoin="miter" fill-opacity="0.0" stroke="rgb(0,0,0)" stroke-opacity="1.0" fill="rgb(0,0,0)" stroke-linecap="butt" stroke-miterlimit="10.0"><path d="M 92.1429,217.5554 l 0.0000,-35.5483 l -30.7857,-17.7741 l -30.7857,17.7741 l -0.0000,35.5483 l 30.7857,17.7741 Z"/></g><g stroke-width="1.7051581487743708" stroke-linejoin="miter" fill-opacity="1.0" stroke="rgb(0,0,0)" font-size="7.109654519590278px" stroke-opacity="1.0" fill="rgb(0,0,0)" stroke-linecap="butt" stroke-miterlimit="10.0"><text transform="matrix(1.0000,0.0000,0.0000,1.0000,61.3572,199.7813)" text-anchor="middle" stroke="none" dominant-baseline="middle">25</text></g><g stroke-width="1.7051581487743708" stroke-linejoin="miter" fill-opacity="0.0" stroke="rgb(0,0,0)" stroke-opacity="1.0" fill="rgb(0,0,0)" stroke-linecap="butt" stroke-miterlimit="10.0"><path d="M 338.6428,254.5256 Z"/></g><g stroke-width="1.7051581487743708" stroke-linejoin="miter" fill-opacity="0.0" stroke="rgb(0,0,0)" stroke-opacity="1.0" fill="rgb(0,0,0)" stroke-linecap="butt" stroke-miterlimit="10.0"><path d="M 369.4285,272.2998 l 0.0000,-35.5483 l -30.7857,-17.7741 l -30.7857,17.7741 l -0.0000,35.5483 l 30.7857,17.7741 Z"/></g><g stroke-width="1.7051581487743708" stroke-linejoin="miter" fill-opacity="1.0" stroke="rgb(0,0,0)" font-size="7.109654519590278px" stroke-opacity="1.0" fill="rgb(0,0,0)" stroke-linecap="butt" stroke-miterlimit="10.0"><text transform="matrix(1.0000,0.0000,0.0000,1.0000,338.6428,254.5256)" text-anchor="middle" stroke="none" dominant-baseline="middle">24</text></g><g stroke-width="1.7051581487743708" stroke-linejoin="miter" fill-opacity="0.0" stroke="rgb(0,0,0)" stroke-opacity="1.0" fill="rgb(0,0,0)" stroke-linecap="butt" stroke-miterlimit="10.0"><path d="M 307.8571,272.2998 l 0.0000,-35.5483 l -30.7857,-17.7741 l -30.7857,17.7741 l -0.0000,35.5483 l 30.7857,17.7741 Z"/></g><g stroke-width="1.7051581487743708" stroke-linejoin="miter" fill-opacity="1.0" stroke="rgb(0,0,0)" font-size="7.109654519590278px" stroke-opacity="1.0" fill="rgb(0,0,0)" stroke-linecap="butt" stroke-miterlimit="10.0"><text transform="matrix(1.0000,0.0000,0.0000,1.0000,277.0714,254.5256)" text-anchor="middle" stroke="none" dominant-baseline="middle">23</text></g><g stroke-width="1.7051581487743708" stroke-linejoin="miter" fill-opacity="0.0" stroke="rgb(0,0,0)" stroke-opacity="1.0" fill="rgb(0,0,0)" stroke-linecap="butt" stroke-miterlimit="10.0"><path d="M 246.2857,272.2998 l 0.0000,-35.5483 l -30.7857,-17.7741 l -30.7857,17.7741 l -0.0000,35.5483 l 30.7857,17.7741 Z"/></g><g stroke-width="1.7051581487743708" stroke-linejoin="miter" fill-opacity="1.0" stroke="rgb(0,0,0)" font-size="7.109654519590278px" stroke-opacity="1.0" fill="rgb(0,0,0)" stroke-linecap="butt" stroke-miterlimit="10.0"><text transform="matrix(1.0000,0.0000,0.0000,1.0000,215.4999,254.5256)" text-anchor="middle" stroke="none" dominant-baseline="middle">22</text></g><g stroke-width="1.7051581487743708" stroke-linejoin="miter" fill-opacity="0.0" stroke="rgb(0,0,0)" stroke-opacity="1.0" fill="rgb(0,0,0)" stroke-linecap="butt" stroke-miterlimit="10.0"><path d="M 184.7142,272.2998 l 0.0000,-35.5483 l -30.7857,-17.7741 l -30.7857,17.7741 l -0.0000,35.5483 l 30.7857,17.7741 Z"/></g><g stroke-width="1.7051581487743708" stroke-linejoin="miter" fill-opacity="1.0" stroke="rgb(0,0,0)" font-size="7.109654519590278px" stroke-opacity="1.0" fill="rgb(0,0,0)" stroke-linecap="butt" stroke-miterlimit="10.0"><text transform="matrix(1.0000,0.0000,0.0000,1.0000,153.9285,254.5256)" text-anchor="middle" stroke="none" dominant-baseline="middle">21</text></g><g stroke-width="1.7051581487743708" stroke-linejoin="miter" fill-opacity="0.0" stroke="rgb(0,0,0)" stroke-opacity="1.0" fill="rgb(0,0,0)" stroke-linecap="butt" stroke-miterlimit="10.0"><path d="M 123.1428,272.2998 l 0.0000,-35.5483 l -30.7857,-17.7741 l -30.7857,17.7741 l -0.0000,35.5483 l 30.7857,17.7741 Z"/></g><g stroke-width="1.7051581487743708" stroke-linejoin="miter" fill-opacity="1.0" stroke="rgb(0,0,0)" font-size="7.109654519590278px" stroke-opacity="1.0" fill="rgb(0,0,0)" stroke-linecap="butt" stroke-miterlimit="10.0"><text transform="matrix(1.0000,0.0000,0.0000,1.0000,92.3571,254.5256)" text-anchor="middle" stroke="none" dominant-baseline="middle">20</text></g><g stroke-width="1.7051581487743708" stroke-linejoin="miter" fill-opacity="0.0" stroke="rgb(0,0,0)" stroke-opacity="1.0" fill="rgb(0,0,0)" stroke-linecap="butt" stroke-miterlimit="10.0"><path d="M 61.5714,272.2998 l 0.0000,-35.5483 l -30.7857,-17.7741 l -30.7857,17.7741 l -0.0000,35.5483 l 30.7857,17.7741 Z"/></g><g stroke-width="1.7051581487743708" stroke-linejoin="miter" fill-opacity="1.0" stroke="rgb(0,0,0)" font-size="7.109654519590278px" stroke-opacity="1.0" fill="rgb(0,0,0)" stroke-linecap="butt" stroke-miterlimit="10.0"><text transform="matrix(1.0000,0.0000,0.0000,1.0000,30.7857,254.5256)" text-anchor="middle" stroke="none" dominant-baseline="middle">19</text></g><g stroke-width="1.7051581487743708" stroke-linejoin="miter" fill-opacity="0.0" stroke="rgb(0,0,0)" stroke-opacity="1.0" fill="rgb(0,0,0)" stroke-linecap="butt" stroke-miterlimit="10.0"><path d="M 369.2143,309.2700 Z"/></g><g stroke-width="1.7051581487743708" stroke-linejoin="miter" fill-opacity="0.0" stroke="rgb(0,0,0)" stroke-opacity="1.0" fill="rgb(0,0,0)" stroke-linecap="butt" stroke-miterlimit="10.0"><path d="M 400.0000,327.0441 l 0.0000,-35.5483 l -30.7857,-17.7741 l -30.7857,17.7741 l -0.0000,35.5483 l 30.7857,17.7741 Z"/></g><g stroke-width="1.7051581487743708" stroke-linejoin="miter" fill-opacity="1.0" stroke="rgb(0,0,0)" font-size="7.109654519590278px" stroke-opacity="1.0" fill="rgb(0,0,0)" stroke-linecap="butt" stroke-miterlimit="10.0"><text transform="matrix(1.0000,0.0000,0.0000,1.0000,369.2143,309.2700)" text-anchor="middle" stroke="none" dominant-baseline="middle">18</text></g><g stroke-width="1.7051581487743708" stroke-linejoin="miter" fill-opacity="0.0" stroke="rgb(0,0,0)" stroke-opacity="1.0" fill="rgb(0,0,0)" stroke-linecap="butt" stroke-miterlimit="10.0"><path d="M 338.4286,327.0441 l 0.0000,-35.5483 l -30.7857,-17.7741 l -30.7857,17.7741 l -0.0000,35.5483 l 30.7857,17.7741 Z"/></g><g stroke-width="1.7051581487743708" stroke-linejoin="miter" fill-opacity="1.0" stroke="rgb(0,0,0)" font-size="7.109654519590278px" stroke-opacity="1.0" fill="rgb(0,0,0)" stroke-linecap="butt" stroke-miterlimit="10.0"><text transform="matrix(1.0000,0.0000,0.0000,1.0000,307.6429,309.2700)" text-anchor="middle" stroke="none" dominant-baseline="middle">17</text></g><g stroke-width="1.7051581487743708" stroke-linejoin="miter" fill-opacity="0.0" stroke="rgb(0,0,0)" stroke-opacity="1.0" fill="rgb(0,0,0)" stroke-linecap="butt" stroke-miterlimit="10.0"><path d="M 276.8572,327.0441 l 0.0000,-35.5483 l -30.7857,-17.7741 l -30.7857,17.7741 l -0.0000,35.5483 l 30.7857,17.7741 Z"/></g><g stroke-width="1.7051581487743708" stroke-linejoin="miter" fill-opacity="1.0" stroke="rgb(0,0,0)" font-size="7.109654519590278px" stroke-opacity="1.0" fill="rgb(0,0,0)" stroke-linecap="butt" stroke-miterlimit="10.0"><text transform="matrix(1.0000,0.0000,0.0000,1.0000,246.0715,309.2700)" text-anchor="middle" stroke="none" dominant-baseline="middle">16</text></g><g stroke-width="1.7051581487743708" stroke-linejoin="miter" fill-opacity="0.0" stroke="rgb(0,0,0)" stroke-opacity="1.0" fill="rgb(0,0,0)" stroke-linecap="butt" stroke-miterlimit="10.0"><path d="M 215.2858,327.0441 l 0.0000,-35.5483 l -30.7857,-17.7741 l -30.7857,17.7741 l -0.0000,35.5483 l 30.7857,17.7741 Z"/></g><g stroke-width="1.7051581487743708" stroke-linejoin="miter" fill-opacity="1.0" stroke="rgb(0,0,0)" font-size="7.109654519590278px" stroke-opacity="1.0" fill="rgb(0,0,0)" stroke-linecap="butt" stroke-miterlimit="10.0"><text transform="matrix(1.0000,0.0000,0.0000,1.0000,184.5001,309.2700)" text-anchor="middle" stroke="none" dominant-baseline="middle">15</text></g><g stroke-width="1.7051581487743708" stroke-linejoin="miter" fill-opacity="0.0" stroke="rgb(0,0,0)" stroke-opacity="1.0" fill="rgb(0,0,0)" stroke-linecap="butt" stroke-miterlimit="10.0"><path d="M 153.7143,327.0441 l 0.0000,-35.5483 l -30.7857,-17.7741 l -30.7857,17.7741 l -0.0000,35.5483 l 30.7857,17.7741 Z"/></g><g stroke-width="1.7051581487743708" stroke-linejoin="miter" fill-opacity="1.0" stroke="rgb(0,0,0)" font-size="7.109654519590278px" stroke-opacity="1.0" fill="rgb(0,0,0)" stroke-linecap="butt" stroke-miterlimit="10.0"><text transform="matrix(1.0000,0.0000,0.0000,1.0000,122.9286,309.2700)" text-anchor="middle" stroke="none" dominant-baseline="middle">14</text></g><g stroke-width="1.7051581487743708" stroke-linejoin="miter" fill-opacity="0.0" stroke="rgb(0,0,0)" stroke-opacity="1.0" fill="rgb(0,0,0)" stroke-linecap="butt" stroke-miterlimit="10.0"><path d="M 92.1429,327.0441 l 0.0000,-35.5483 l -30.7857,-17.7741 l -30.7857,17.7741 l -0.0000,35.5483 l 30.7857,17.7741 Z"/></g><g stroke-width="1.7051581487743708" stroke-linejoin="miter" fill-opacity="1.0" stroke="rgb(0,0,0)" font-size="7.109654519590278px" stroke-opacity="1.0" fill="rgb(0,0,0)" stroke-linecap="butt" stroke-miterlimit="10.0"><text transform="matrix(1.0000,0.0000,0.0000,1.0000,61.3572,309.2700)" text-anchor="middle" stroke="none" dominant-baseline="middle">13</text></g><g stroke-width="1.7051581487743708" stroke-linejoin="miter" fill-opacity="0.0" stroke="rgb(0,0,0)" stroke-opacity="1.0" fill="rgb(0,0,0)" stroke-linecap="butt" stroke-miterlimit="10.0"><path d="M 338.6428,364.0143 Z"/></g><g stroke-width="1.7051581487743708" stroke-linejoin="miter" fill-opacity="0.0" stroke="rgb(0,0,0)" stroke-opacity="1.0" fill="rgb(0,0,0)" stroke-linecap="butt" stroke-miterlimit="10.0"><path d="M 369.4285,381.7884 l 0.0000,-35.5483 l -30.7857,-17.7741 l -30.7857,17.7741 l -0.0000,35.5483 l 30.7857,17.7741 Z"/></g><g stroke-width="1.7051581487743708" stroke-linejoin="miter" fill-opacity="1.0" stroke="rgb(0,0,0)" font-size="7.109654519590278px" stroke-opacity="1.0" fill="rgb(0,0,0)" stroke-linecap="butt" stroke-miterlimit="10.0"><text transform="matrix(1.0000,0.0000,0.0000,1.0000,338.6428,364.0143)" text-anchor="middle" stroke="none" dominant-baseline="middle">12</text></g><g stroke-width="1.7051581487743708" stroke-linejoin="miter" fill-opacity="0.0" stroke="rgb(0,0,0)" stroke-opacity="1.0" fill="rgb(0,0,0)" stroke-linecap="butt" stroke-miterlimit="10.0"><path d="M 307.8571,381.7884 l 0.0000,-35.5483 l -30.7857,-17.7741 l -30.7857,17.7741 l -0.0000,35.5483 l 30.7857,17.7741 Z"/></g><g stroke-width="1.7051581487743708" stroke-linejoin="miter" fill-opacity="1.0" stroke="rgb(0,0,0)" font-size="7.109654519590278px" stroke-opacity="1.0" fill="rgb(0,0,0)" stroke-linecap="butt" stroke-miterlimit="10.0"><text transform="matrix(1.0000,0.0000,0.0000,1.0000,277.0714,364.0143)" text-anchor="middle" stroke="none" dominant-baseline="middle">11</text></g><g stroke-width="1.7051581487743708" stroke-linejoin="miter" fill-opacity="0.0" stroke="rgb(0,0,0)" stroke-opacity="1.0" fill="rgb(0,0,0)" stroke-linecap="butt" stroke-miterlimit="10.0"><path d="M 246.2857,381.7884 l 0.0000,-35.5483 l -30.7857,-17.7741 l -30.7857,17.7741 l -0.0000,35.5483 l 30.7857,17.7741 Z"/></g><g stroke-width="1.7051581487743708" stroke-linejoin="miter" fill-opacity="1.0" stroke="rgb(0,0,0)" font-size="7.109654519590278px" stroke-opacity="1.0" fill="rgb(0,0,0)" stroke-linecap="butt" stroke-miterlimit="10.0"><text transform="matrix(1.0000,0.0000,0.0000,1.0000,215.4999,364.0143)" text-anchor="middle" stroke="none" dominant-baseline="middle">10</text></g><g stroke-width="1.7051581487743708" stroke-linejoin="miter" fill-opacity="0.0" stroke="rgb(0,0,0)" stroke-opacity="1.0" fill="rgb(0,0,0)" stroke-linecap="butt" stroke-miterlimit="10.0"><path d="M 184.7142,381.7884 l 0.0000,-35.5483 l -30.7857,-17.7741 l -30.7857,17.7741 l -0.0000,35.5483 l 30.7857,17.7741 Z"/></g><g stroke-width="1.7051581487743708" stroke-linejoin="miter" fill-opacity="1.0" stroke="rgb(0,0,0)" font-size="7.109654519590278px" stroke-opacity="1.0" fill="rgb(0,0,0)" stroke-linecap="butt" stroke-miterlimit="10.0"><text transform="matrix(1.0000,0.0000,0.0000,1.0000,153.9285,364.0143)" text-anchor="middle" stroke="none" dominant-baseline="middle">9</text></g><g stroke-width="1.7051581487743708" stroke-linejoin="miter" fill-opacity="0.0" stroke="rgb(0,0,0)" stroke-opacity="1.0" fill="rgb(0,0,0)" stroke-linecap="butt" stroke-miterlimit="10.0"><path d="M 123.1428,381.7884 l 0.0000,-35.5483 l -30.7857,-17.7741 l -30.7857,17.7741 l -0.0000,35.5483 l 30.7857,17.7741 Z"/></g><g stroke-width="1.7051581487743708" stroke-linejoin="miter" fill-opacity="1.0" stroke="rgb(0,0,0)" font-size="7.109654519590278px" stroke-opacity="1.0" fill="rgb(0,0,0)" stroke-linecap="butt" stroke-miterlimit="10.0"><text transform="matrix(1.0000,0.0000,0.0000,1.0000,92.3571,364.0143)" text-anchor="middle" stroke="none" dominant-baseline="middle">8</text></g><g stroke-width="1.7051581487743708" stroke-linejoin="miter" fill-opacity="0.0" stroke="rgb(0,0,0)" stroke-opacity="1.0" fill="rgb(0,0,0)" stroke-linecap="butt" stroke-miterlimit="10.0"><path d="M 61.5714,381.7884 l 0.0000,-35.5483 l -30.7857,-17.7741 l -30.7857,17.7741 l -0.0000,35.5483 l 30.7857,17.7741 Z"/></g><g stroke-width="1.7051581487743708" stroke-linejoin="miter" fill-opacity="1.0" stroke="rgb(0,0,0)" font-size="7.109654519590278px" stroke-opacity="1.0" fill="rgb(0,0,0)" stroke-linecap="butt" stroke-miterlimit="10.0"><text transform="matrix(1.0000,0.0000,0.0000,1.0000,30.7857,364.0143)" text-anchor="middle" stroke="none" dominant-baseline="middle">7</text></g><g stroke-width="1.7051581487743708" stroke-linejoin="miter" fill-opacity="0.0" stroke="rgb(0,0,0)" stroke-opacity="1.0" fill="rgb(0,0,0)" stroke-linecap="butt" stroke-miterlimit="10.0"><path d="M 369.2143,418.7587 Z"/></g><g stroke-width="1.7051581487743708" stroke-linejoin="miter" fill-opacity="0.0" stroke="rgb(0,0,0)" stroke-opacity="1.0" fill="rgb(0,0,0)" stroke-linecap="butt" stroke-miterlimit="10.0"><path d="M 400.0000,436.5328 l 0.0000,-35.5483 l -30.7857,-17.7741 l -30.7857,17.7741 l -0.0000,35.5483 l 30.7857,17.7741 Z"/></g><g stroke-width="1.7051581487743708" stroke-linejoin="miter" fill-opacity="1.0" stroke="rgb(0,0,0)" font-size="7.109654519590278px" stroke-opacity="1.0" fill="rgb(0,0,0)" stroke-linecap="butt" stroke-miterlimit="10.0"><text transform="matrix(1.0000,0.0000,0.0000,1.0000,369.2143,418.7587)" text-anchor="middle" stroke="none" dominant-baseline="middle">6</text></g><g stroke-width="1.7051581487743708" stroke-linejoin="miter" fill-opacity="0.0" stroke="rgb(0,0,0)" stroke-opacity="1.0" fill="rgb(0,0,0)" stroke-linecap="butt" stroke-miterlimit="10.0"><path d="M 338.4286,436.5328 l 0.0000,-35.5483 l -30.7857,-17.7741 l -30.7857,17.7741 l -0.0000,35.5483 l 30.7857,17.7741 Z"/></g><g stroke-width="1.7051581487743708" stroke-linejoin="miter" fill-opacity="1.0" stroke="rgb(0,0,0)" font-size="7.109654519590278px" stroke-opacity="1.0" fill="rgb(0,0,0)" stroke-linecap="butt" stroke-miterlimit="10.0"><text transform="matrix(1.0000,0.0000,0.0000,1.0000,307.6429,418.7587)" text-anchor="middle" stroke="none" dominant-baseline="middle">5</text></g><g stroke-width="1.7051581487743708" stroke-linejoin="miter" fill-opacity="0.0" stroke="rgb(0,0,0)" stroke-opacity="1.0" fill="rgb(0,0,0)" stroke-linecap="butt" stroke-miterlimit="10.0"><path d="M 276.8572,436.5328 l 0.0000,-35.5483 l -30.7857,-17.7741 l -30.7857,17.7741 l -0.0000,35.5483 l 30.7857,17.7741 Z"/></g><g stroke-width="1.7051581487743708" stroke-linejoin="miter" fill-opacity="1.0" stroke="rgb(0,0,0)" font-size="7.109654519590278px" stroke-opacity="1.0" fill="rgb(0,0,0)" stroke-linecap="butt" stroke-miterlimit="10.0"><text transform="matrix(1.0000,0.0000,0.0000,1.0000,246.0715,418.7587)" text-anchor="middle" stroke="none" dominant-baseline="middle">4</text></g><g stroke-width="1.7051581487743708" stroke-linejoin="miter" fill-opacity="0.0" stroke="rgb(0,0,0)" stroke-opacity="1.0" fill="rgb(0,0,0)" stroke-linecap="butt" stroke-miterlimit="10.0"><path d="M 215.2858,436.5328 l 0.0000,-35.5483 l -30.7857,-17.7741 l -30.7857,17.7741 l -0.0000,35.5483 l 30.7857,17.7741 Z"/></g><g stroke-width="1.7051581487743708" stroke-linejoin="miter" fill-opacity="1.0" stroke="rgb(0,0,0)" font-size="7.109654519590278px" stroke-opacity="1.0" fill="rgb(0,0,0)" stroke-linecap="butt" stroke-miterlimit="10.0"><text transform="matrix(1.0000,0.0000,0.0000,1.0000,184.5001,418.7587)" text-anchor="middle" stroke="none" dominant-baseline="middle">3</text></g><g stroke-width="1.7051581487743708" stroke-linejoin="miter" fill-opacity="0.0" stroke="rgb(0,0,0)" stroke-opacity="1.0" fill="rgb(0,0,0)" stroke-linecap="butt" stroke-miterlimit="10.0"><path d="M 153.7143,436.5328 l 0.0000,-35.5483 l -30.7857,-17.7741 l -30.7857,17.7741 l -0.0000,35.5483 l 30.7857,17.7741 Z"/></g><g stroke-width="1.7051581487743708" stroke-linejoin="miter" fill-opacity="1.0" stroke="rgb(0,0,0)" font-size="7.109654519590278px" stroke-opacity="1.0" fill="rgb(0,0,0)" stroke-linecap="butt" stroke-miterlimit="10.0"><text transform="matrix(1.0000,0.0000,0.0000,1.0000,122.9286,418.7587)" text-anchor="middle" stroke="none" dominant-baseline="middle">2</text></g><g stroke-width="1.7051581487743708" stroke-linejoin="miter" fill-opacity="0.0" stroke="rgb(0,0,0)" stroke-opacity="1.0" fill="rgb(0,0,0)" stroke-linecap="butt" stroke-miterlimit="10.0"><path d="M 92.1429,436.5328 l 0.0000,-35.5483 l -30.7857,-17.7741 l -30.7857,17.7741 l -0.0000,35.5483 l 30.7857,17.7741 Z"/></g><g stroke-width="1.7051581487743708" stroke-linejoin="miter" fill-opacity="1.0" stroke="rgb(0,0,0)" font-size="7.109654519590278px" stroke-opacity="1.0" fill="rgb(0,0,0)" stroke-linecap="butt" stroke-miterlimit="10.0"><text transform="matrix(1.0000,0.0000,0.0000,1.0000,61.3572,418.7587)" text-anchor="middle" stroke="none" dominant-baseline="middle">1</text></g></svg>